<svg width="24" height="24" viewBox="0 0 48 48" fill="none" xmlns="http://www.w3.org/2000/svg">
<path d="M25.42 21.58C25.2298 21.3979 25.0055 21.2552 24.76 21.16C24.2731 20.9599 23.7269 20.9599 23.24 21.16C22.9945 21.2552 22.7702 21.3979 22.58 21.58L18.58 25.58C18.2034 25.9566 17.9918 26.4674 17.9918 27C17.9918 27.5326 18.2034 28.0434 18.58 28.42C18.9566 28.7966 19.4674 29.0082 20 29.0082C20.5326 29.0082 21.0434 28.7966 21.42 28.42L22 27.82V33C22 33.5304 22.2107 34.0391 22.5858 34.4142C22.9609 34.7893 23.4696 35 24 35C24.5304 35 25.0391 34.7893 25.4142 34.4142C25.7893 34.0391 26 33.5304 26 33V27.82L26.58 28.42C26.7659 28.6074 26.9871 28.7562 27.2308 28.8578C27.4746 28.9593 27.736 29.0116 28 29.0116C28.264 29.0116 28.5254 28.9593 28.7692 28.8578C29.0129 28.7562 29.2341 28.6074 29.42 28.42C29.6075 28.2341 29.7562 28.0129 29.8578 27.7691C29.9593 27.5254 30.0116 27.264 30.0116 27C30.0116 26.736 29.9593 26.4745 29.8578 26.2308C29.7562 25.9871 29.6075 25.7659 29.42 25.58L25.42 21.58ZM38 11H25.44L24.8 8.99998C24.3851 7.82644 23.6155 6.81099 22.5978 6.09431C21.5801 5.37762 20.3647 4.99519 19.12 4.99998H10C8.4087 4.99998 6.88258 5.63212 5.75736 6.75734C4.63214 7.88256 4 9.40868 4 11V37C4 38.5913 4.63214 40.1174 5.75736 41.2426C6.88258 42.3678 8.4087 43 10 43H38C39.5913 43 41.1174 42.3678 42.2426 41.2426C43.3679 40.1174 44 38.5913 44 37V17C44 15.4087 43.3679 13.8826 42.2426 12.7573C41.1174 11.6321 39.5913 11 38 11ZM40 37C40 37.5304 39.7893 38.0391 39.4142 38.4142C39.0391 38.7893 38.5304 39 38 39H10C9.46957 39 8.96086 38.7893 8.58579 38.4142C8.21071 38.0391 8 37.5304 8 37V11C8 10.4696 8.21071 9.96084 8.58579 9.58577C8.96086 9.2107 9.46957 8.99998 10 8.99998H19.12C19.5393 8.9989 19.9483 9.12962 20.2893 9.37367C20.6302 9.61771 20.8858 9.96274 21.02 10.36L22.1 13.64C22.2342 14.0372 22.4898 14.3823 22.8307 14.6263C23.1717 14.8703 23.5807 15.0011 24 15H38C38.5304 15 39.0391 15.2107 39.4142 15.5858C39.7893 15.9608 40 16.4696 40 17V37Z" fill="black" fill-opacity="0.5"/>
</svg>
