<svg width="24" height="24" viewBox="0 0 48 48" fill="none" xmlns="http://www.w3.org/2000/svg">
<path d="M42 28H40V8H42C42.5304 8 43.0391 7.78929 43.4142 7.41421C43.7893 7.03914 44 6.53043 44 6C44 5.46957 43.7893 4.96086 43.4142 4.58579C43.0391 4.21071 42.5304 4 42 4H6C5.46957 4 4.96086 4.21071 4.58579 4.58579C4.21071 4.96086 4 5.46957 4 6C4 6.53043 4.21071 7.03914 4.58579 7.41421C4.96086 7.78929 5.46957 8 6 8H8V28H6C5.46957 28 4.96086 28.2107 4.58579 28.5858C4.21071 28.9609 4 29.4696 4 30C4 30.5304 4.21071 31.0391 4.58579 31.4142C4.96086 31.7893 5.46957 32 6 32H22V34.3L12.9 40.3C12.5267 40.5311 12.2398 40.8786 12.0835 41.289C11.9273 41.6993 11.9105 42.1496 12.0356 42.5705C12.1607 42.9914 12.4208 43.3594 12.7759 43.6177C13.1309 43.8761 13.5611 44.0104 14 44C14.3932 44.0045 14.7779 43.8856 15.1 43.66L22 39.1V42C22 42.5304 22.2107 43.0391 22.5858 43.4142C22.9609 43.7893 23.4696 44 24 44C24.5304 44 25.0391 43.7893 25.4142 43.4142C25.7893 43.0391 26 42.5304 26 42V39.1L32.9 43.66C33.2221 43.8856 33.6068 44.0045 34 44C34.4273 43.9967 34.8423 43.8566 35.1842 43.6003C35.5261 43.344 35.7769 42.9849 35.8999 42.5757C36.0229 42.1665 36.0116 41.7286 35.8677 41.3263C35.7237 40.924 35.4547 40.5783 35.1 40.34L26 34.34V32H42C42.5304 32 43.0391 31.7893 43.4142 31.4142C43.7893 31.0391 44 30.5304 44 30C44 29.4696 43.7893 28.9609 43.4142 28.5858C43.0391 28.2107 42.5304 28 42 28ZM36 28H12V8H36V28ZM19.22 24.52C19.7531 24.8349 20.3609 25.0011 20.98 25.0011C21.5991 25.0011 22.2069 24.8349 22.74 24.52L28.74 21.04C29.2529 20.7252 29.6766 20.2841 29.9705 19.7589C30.2644 19.2337 30.4187 18.6419 30.4187 18.04C30.4187 17.4381 30.2644 16.8463 29.9705 16.3211C29.6766 15.7959 29.2529 15.3548 28.74 15.04L22.74 11.56C22.2069 11.2451 21.5991 11.0789 20.98 11.0789C20.3609 11.0789 19.7531 11.2451 19.22 11.56C18.6829 11.8628 18.2376 12.3052 17.9313 12.8403C17.625 13.3755 17.469 13.9835 17.48 14.6V21.56C17.4833 22.163 17.646 22.7544 17.9516 23.2742C18.2572 23.794 18.6948 24.2238 19.22 24.52ZM21.48 15.36L26 18L21.44 20.64L21.48 15.36Z" fill="black" fill-opacity="0.5"/>
</svg>
