<svg width="119" height="150" viewBox="0 0 119 150" fill="none" xmlns="http://www.w3.org/2000/svg">
<path d="M74.3327 0.833252H14.9993C11.0653 0.833252 7.29239 2.39604 4.5106 5.17783C1.72881 7.95962 0.166016 11.7325 0.166016 15.6666V134.333C0.166016 138.267 1.72881 142.04 4.5106 144.822C7.29239 147.604 11.0653 149.167 14.9993 149.167H103.999C107.933 149.167 111.706 147.604 114.488 144.822C117.27 142.04 118.833 138.267 118.833 134.333V45.3333L74.3327 0.833252ZM40.9428 106.076C38.6511 108.227 35.2691 109.191 31.3308 109.191C30.5672 109.199 29.804 109.154 29.0465 109.057V119.633H22.416V90.4414C25.4083 89.995 28.4318 89.7917 31.4569 89.8333C35.588 89.8333 38.525 90.6194 40.5053 92.1992C42.3891 93.6973 43.6648 96.1522 43.6648 99.0447C43.6573 101.952 42.6932 104.407 40.9428 106.076ZM69.1781 116.125C66.0631 118.714 61.3238 119.945 55.5314 119.945C52.0604 119.945 49.6055 119.722 47.9368 119.5V90.4488C50.9301 90.0119 53.9527 89.8061 56.9777 89.8333C62.5921 89.8333 66.2411 90.8419 69.0891 92.9927C72.167 95.2771 74.0954 98.9187 74.0954 104.147C74.0954 109.806 72.0261 113.715 69.1781 116.125ZM96.5827 95.5441H85.2204V102.301H95.841V107.745H85.2204V119.641H78.5008V90.0557H96.5827V95.5441ZM74.3327 52.7499H66.916V15.6666L103.999 52.7499H74.3327Z" fill="rgba(108, 114, 120, 1)"/>
</svg>