<svg width="44" height="44" viewBox="0 0 44 44" fill="none" xmlns="http://www.w3.org/2000/svg">
<path d="M7.54235 36.9641C8.20378 36.9641 8.73998 36.5984 8.73998 36.1473C8.73998 35.6962 8.20378 35.3306 7.54235 35.3306C6.88092 35.3306 6.34473 35.6962 6.34473 36.1473C6.34473 36.5984 6.88092 36.9641 7.54235 36.9641Z" fill="white"/>
<path d="M42.625 32.0849L42.1754 31.8209C42.141 31.801 38.7056 29.7626 37.8517 27.2889L37.6612 26.741L37.3092 27.2009C37.2983 27.2154 36.8101 27.819 35.4441 28.5271C34.4328 22.7707 30.9925 15.8984 26.4715 12.9683C27.764 13.0728 29.0606 12.9656 30.3119 12.5104C31.0654 12.2368 30.7402 11.0089 29.9798 11.2867C28.9541 11.66 27.9262 11.7617 26.9005 11.7095C29.4188 9.40156 31.3961 5.86438 31.3961 3.278C31.3961 2.6565 31.3961 1.49944 30.4748 1.49944C30.1049 1.49944 29.8059 1.73044 29.3927 2.04944C28.7588 2.53825 27.8018 3.278 26.3959 3.278C25.8603 3.278 24.8799 2.71288 24.0921 2.25912C23.1399 1.71119 22.5314 1.375 22.0199 1.375C21.1729 1.375 19.9279 2.05975 18.8293 2.66406C18.3824 2.9095 17.7712 3.24638 17.6447 3.27869C16.0524 3.27869 15.1277 2.54444 14.5145 2.05838C14.157 1.77375 13.8978 1.5675 13.552 1.5675C12.6459 1.5675 12.6459 2.65444 12.6459 3.91325C12.6459 6.34288 14.4966 9.55006 16.9201 11.7054C15.3931 11.8147 13.8875 12.276 12.8294 13.3011C12.2451 13.8662 13.1306 14.7627 13.7129 14.1989C14.5922 13.3464 15.7451 12.9814 16.9785 12.9106C17.0136 13.0364 17.0562 13.1601 17.1084 13.2818C11.9412 16.995 8.27062 25.8122 8.27062 31.7646C8.27062 32.3517 8.316 32.8831 8.38613 33.3836C7.05375 32.7917 6.56769 32.2726 6.55806 32.2609L6.20331 31.8519L6.02869 32.3675C5.25662 34.639 1.90025 36.6094 1.86656 36.6293L1.375 36.9146L1.87481 37.1848C2.05013 37.2797 2.22406 37.3629 2.39937 37.4529L2.08312 37.6723L2.25019 39.7622L15.3491 42.625L20.3156 39.4481C20.8168 39.4508 21.3242 39.4522 21.8405 39.4522L27.6458 42.625L40.7694 38.5V36.2938L40.4223 36.0855C40.5955 35.9755 40.7687 35.8634 40.9413 35.7479L41.4013 35.4406L41.3002 35.3911L41.8853 35.2309L41.9842 32.9374L41.646 32.6975C41.8261 32.5896 42.0056 32.4796 42.1857 32.3654L42.625 32.0849ZM13.8964 3.91325C13.8964 3.608 13.9006 3.37012 13.9068 3.18519C14.0119 3.26769 14.1343 3.35775 14.2649 3.45056C14.6658 4.41031 15.4241 5.79219 16.7097 6.66256C18.2717 7.72131 18.0641 6.50444 18.8973 5.39344C19.7306 4.28312 20.2943 3.7015 21.6899 6.55737C22.2984 7.80244 23.3124 4.323 24.2763 3.81494C24.5314 3.95381 24.7858 4.08306 25.0353 4.19306C26.7637 7.00356 27.5646 6.127 29.0998 3.79087C29.5219 3.54338 29.8684 3.278 30.1441 3.06556C30.1455 3.1295 30.1469 3.20031 30.1469 3.27937C30.1469 5.48625 28.3436 8.6515 26.1353 10.7161C26.031 10.4511 25.8817 10.2062 25.6939 9.99213C24.8022 8.98219 23.4087 10.1021 22.748 10.8371C21.5758 10.4603 19.6659 9.42287 18.4216 10.0169C18.1116 10.1606 17.827 10.3536 17.5787 10.5882C15.5437 8.73331 13.8964 6.0555 13.8964 3.91325ZM25.0367 11.4579C24.7284 11.3925 24.4219 11.3192 24.1175 11.2379C24.5011 10.9072 24.8531 10.7917 25.0009 11.2833C25.0168 11.3369 25.0264 11.3981 25.0367 11.4579ZM19.8117 11.8848C19.5841 11.8415 19.3504 11.8023 19.1097 11.7714C18.9273 11.657 18.7487 11.5366 18.5742 11.4104C19.2026 10.989 20.2861 11.2131 21.3214 11.5644C20.8106 11.616 20.3067 11.7274 19.8117 11.8848ZM20.1238 13.6998C19.7388 13.7961 19.3194 13.7576 18.9571 13.6132C19.1042 13.5355 19.2528 13.4681 19.4012 13.4001C19.6419 13.5162 19.8825 13.6132 20.1238 13.6998ZM7.40712 38.7606C5.76736 38.2857 4.17625 37.6566 2.65513 36.8816C3.58806 36.2684 5.62031 34.7854 6.44669 33.0034C7.01319 33.4482 8.32081 34.2595 10.8673 34.8824C10.824 34.9525 10.7711 35.0274 10.7202 35.101C8.54631 34.5317 7.31019 33.8119 7.29025 33.7996L6.9905 33.6208L6.84681 33.9419C6.65775 34.3626 6.21431 34.4259 5.9675 34.4259C5.89875 34.4259 5.85269 34.4211 5.8465 34.4204L5.60106 34.3846L5.51169 34.6198C5.32881 35.0996 4.57806 35.7266 4.30306 35.9281L3.84381 36.2649L4.36906 36.4801C4.56431 36.5599 4.61725 36.6334 4.62 36.6527C4.62687 36.7001 4.54369 36.8252 4.455 36.8974L4.05487 37.2199L4.52031 37.4351C5.47388 37.8751 6.55394 38.2394 7.634 38.5399C7.54806 38.6244 7.47381 38.6966 7.40712 38.7606ZM12.9511 36.1989C13.9122 36.3337 14.9772 36.4189 16.1404 36.4189H16.1411C16.3831 36.4189 16.6286 36.4148 16.8788 36.4072C16.8955 36.4591 16.9193 36.5084 16.9496 36.5537C17.0108 36.6465 17.0933 36.7235 17.1978 36.7833L15.4433 38.2827C15.4099 38.2813 15.3764 38.2806 15.3429 38.2807C14.5612 38.2807 13.9782 38.5681 13.6984 39.0796C12.6383 38.9443 11.5831 38.773 10.5346 38.566C11.3774 37.816 12.1838 37.0261 12.9511 36.1989ZM5.14869 37.0219C5.21744 36.8919 5.26213 36.7345 5.23806 36.5626C5.21521 36.4076 5.14087 36.2647 5.027 36.157C5.33569 35.8923 5.76125 35.4839 5.995 35.0611C6.52644 35.0536 6.96506 34.8521 7.24144 34.496C7.70687 34.7394 8.75531 35.2309 10.3042 35.6572C9.67106 36.4513 8.81787 37.3519 8.15444 38.0215C7.12044 37.7479 6.07888 37.4179 5.14869 37.0219ZM14.9462 39.9156L14.8053 39.9163C14.2134 39.9163 12.2519 39.8681 9.66075 39.3284C9.7515 39.2514 9.84569 39.1724 9.933 39.0967C12.0354 39.5361 13.7308 39.7244 13.8579 39.7389L14.1096 39.7657L14.1873 39.5216C14.3571 38.995 14.9834 38.9173 15.3422 38.9173C15.4406 38.9173 15.5059 38.9235 15.5134 38.9242L15.6468 38.9386L18.6945 36.3344L17.8798 36.3076C17.6076 36.2979 17.4928 36.2367 17.4646 36.1948L17.6371 35.7431L17.16 35.7631C16.8121 35.7782 16.4725 35.7857 16.1404 35.7857C15.1807 35.7857 14.2897 35.7225 13.4667 35.6228L13.6579 35.3973C15.3189 35.6194 17.3078 35.7562 19.7092 35.739C19.1359 36.5434 17.7059 38.2532 14.9462 39.9156ZM21.8377 36.9284V38.1831C21.4466 38.1831 21.0657 38.1817 20.6931 38.1789L20.581 36.7668L19.6501 36.8424C20.2771 36.1013 20.5446 35.607 20.5686 35.5623L20.8209 35.0852L20.2881 35.0948C15.1882 35.1883 11.8621 34.5806 9.7625 33.9054C9.60919 33.2853 9.5205 32.5841 9.5205 31.7652C9.5205 26.1807 13.0893 17.7396 17.8276 14.3186C18.667 15.1305 19.9403 15.4859 21.1502 14.696C21.4156 14.5227 21.6466 14.2959 21.8632 14.0546C21.9148 14.0559 21.9677 14.0676 22.0199 14.0676C22.1932 14.0676 22.3692 14.0532 22.5445 14.0312C22.7666 14.1199 22.9838 14.2093 23.1852 14.2979C24.1498 14.7228 24.9734 14.4588 25.5358 13.8731C29.876 16.4993 33.3534 23.4465 34.2684 29.062C32.2843 29.8554 29.1369 30.6295 24.3066 30.7656C25.2594 30.2211 25.9744 29.3054 25.7173 28.1022C25.4471 26.8304 24.3843 26.4729 23.2836 26.4144C23.2808 25.817 23.2808 25.2209 23.2849 24.6235C23.6225 24.7727 23.9463 24.9446 24.2406 25.1281C24.7603 25.4547 25.2306 24.6084 24.7143 24.2818C24.2666 24.0004 23.7888 23.77 23.2897 23.595C23.2966 22.9034 23.3001 22.2131 23.3001 21.5229C23.3007 20.8904 22.3609 20.8904 22.3609 21.5229C22.3609 22.1299 22.3568 22.7363 22.3513 23.342C21.8511 23.2548 21.3403 23.2463 20.8374 23.3166C20.7557 22.8615 20.6566 22.4097 20.5404 21.9622C20.3851 21.3531 19.4776 21.6109 19.635 22.2221C19.7505 22.6614 19.8447 23.0986 19.9224 23.5421C19.8825 23.5572 19.8392 23.5647 19.8 23.5826C18.5267 24.0866 17.7499 25.3715 18.6814 26.5698C19.1152 27.1281 19.6824 27.3536 20.3032 27.4285C20.3369 28.2556 20.3582 29.0833 20.3823 29.9097C19.9664 29.6395 19.5876 29.293 19.2445 28.9266C18.8196 28.4783 18.1562 29.1706 18.5804 29.6182C19.1572 30.2321 19.7629 30.6962 20.4194 30.9932C20.449 31.6993 20.4909 32.4074 20.5597 33.11C20.6202 33.7336 21.5607 33.737 21.4995 33.11C21.4416 32.5023 21.3987 31.8932 21.3709 31.2833C21.7284 31.3452 22.1038 31.361 22.5026 31.3232C22.5472 31.9736 22.5995 32.6239 22.6737 33.2743C22.7164 33.6469 23.0725 33.7934 23.3351 33.7178L23.2767 35.068C22.8628 35.1051 22.4407 35.1395 22.0007 35.1684L21.4768 35.2027L21.7559 35.6538C21.7841 35.6991 22.1011 36.2003 22.8085 36.9297H21.8377V36.9284ZM38.9482 32.4032C38.0841 32.8096 36.9909 33.1822 35.8772 33.5074C35.1924 32.7999 34.3166 31.856 33.6628 31.0186C35.1196 30.5772 35.9349 30.1221 36.3027 29.8767C36.5936 30.1331 36.9786 30.2665 37.4344 30.2658C37.5856 30.2658 37.7197 30.2514 37.8228 30.2349C38.1528 30.6625 38.6849 31.1561 39.0177 31.4511C38.8602 31.6126 38.7839 31.7914 38.7901 31.9846C38.7956 32.1496 38.8616 32.2898 38.9482 32.4032ZM34.0292 34.6624C34.1694 34.7861 34.3145 34.9126 34.4623 35.0405C31.6752 35.7796 29.601 35.86 29.1493 35.8676C26.2632 34.1069 24.7672 32.2437 24.1904 31.405C26.6056 31.3445 28.6021 31.1259 30.2672 30.8247C30.3349 30.9079 30.4034 30.9904 30.4728 31.0723C29.1344 31.2807 27.7855 31.4145 26.4323 31.4731L25.8775 31.4964L26.1828 31.9633C26.1821 31.9639 26.1202 32.0794 25.7104 32.1592L25.0443 32.2891L28.3195 34.9408L28.4721 34.8996C28.4756 34.8989 28.7643 34.8212 29.1136 34.8212C29.6175 34.8212 29.9619 34.9745 30.1352 35.2743L30.2452 35.464L30.459 35.4262C31.6565 35.2079 32.8472 34.9531 34.0292 34.6624ZM24.3375 32.6418L23.5551 32.5992C23.5187 32.2087 23.4823 31.8182 23.4548 31.4277C23.5923 31.6559 23.8741 32.0849 24.3375 32.6418ZM23.3695 30.1249C23.3244 29.1994 23.2971 28.2732 23.2877 27.3467C23.4004 27.3508 23.5118 27.3611 23.6177 27.3762C24.8332 27.5605 25.1508 28.9121 24.2021 29.6725C23.9546 29.8684 23.6693 30.0121 23.3695 30.1249ZM30.5463 34.7669C30.2383 34.3867 29.7481 34.1873 29.1143 34.1873C28.8496 34.1873 28.6165 34.2231 28.4694 34.2519L26.4103 32.5834C26.5815 32.4851 26.697 32.3606 26.7603 32.208C26.7758 32.17 26.7878 32.1307 26.796 32.0904C28.4281 32.0011 29.8031 31.8381 30.9657 31.6388C31.5294 32.2678 32.3579 33.1354 33.4565 34.144C32.1069 34.4651 30.9815 34.6851 30.5463 34.7669ZM22.3472 27.3714C22.3603 28.3676 22.385 29.3666 22.4379 30.3621C22.3493 30.3758 22.2619 30.393 22.1746 30.4019C21.879 30.4356 21.5985 30.4109 21.3317 30.3435C21.2981 29.381 21.2761 28.4164 21.2396 27.4532C21.6095 27.4361 21.9842 27.3996 22.3472 27.3714ZM21.1922 26.5018C21.1492 25.7463 21.0781 24.9928 20.9791 24.2426C21.4347 24.18 21.8981 24.2035 22.3451 24.3121C22.3402 25.0149 22.3391 25.7178 22.3417 26.4206C22.0399 26.4371 21.7532 26.466 21.5009 26.4887C21.3982 26.4967 21.2952 26.5011 21.1922 26.5018ZM20.2489 26.3814C20.1905 26.3656 20.1327 26.3533 20.0729 26.3333C19.7979 26.2401 19.5488 26.0829 19.3462 25.8748C18.7591 25.3268 19.5649 24.7892 20.0729 24.5341C20.1527 25.146 20.2077 25.7634 20.2489 26.3814ZM27.8369 39.7643C24.8524 38.2394 23.2513 36.5448 22.6153 35.7596C23.0725 35.7253 23.5049 35.684 23.9333 35.6407L28.8269 38.8169L39.5588 35.8689C34.0244 39.2047 28.5567 39.7127 27.8369 39.7643ZM36.7001 34.3399C36.6121 34.2519 36.5069 34.1474 36.3825 34.0216C37.6035 33.6517 38.7846 33.2227 39.6653 32.7511L40.2009 32.4631L39.6577 32.1867C39.5361 32.1241 39.4171 32.0093 39.4151 31.966C39.4164 31.9495 39.4646 31.8615 39.6729 31.7419L40.0703 31.5136L39.7169 31.2194C39.7059 31.2104 38.6038 30.2954 38.2168 29.7062L38.0889 29.5137L37.8696 29.5776C37.8675 29.5776 37.6791 29.6319 37.4344 29.6319C37.0563 29.6326 36.773 29.5089 36.5915 29.2655L36.3908 28.9994L36.1391 29.216C36.1261 29.227 35.3471 29.8657 33.2578 30.4693C33.189 30.3702 33.1228 30.2693 33.0591 30.1668C35.5926 29.3989 36.8871 28.4694 37.4481 27.9606C38.3488 29.909 40.4931 31.4786 41.4239 32.0939C39.9285 32.9988 38.346 33.7513 36.7001 34.3399Z" fill="white"/>
<path d="M30.5113 32.393C29.8259 32.2067 29.0525 32.3339 28.7816 32.6742C28.5128 33.0159 28.8524 33.4463 29.5372 33.634C30.2233 33.8203 30.996 33.6924 31.2669 33.3514C31.5357 33.0097 31.1975 32.5807 30.5113 32.393Z" fill="white"/>
</svg>
