<svg width="40" height="40" viewBox="0 0 40 40" fill="none" xmlns="http://www.w3.org/2000/svg">
<path d="M9 11.6502L5.095 7.7635L7.68 5.1785L11.5667 9.0835L9 11.6502ZM21.8333 0.833496V6.3335H18.1667V0.833496H21.8333ZM34.905 7.7635L31 11.6502L28.4333 9.0835L32.32 5.1785L34.905 7.7635ZM6.25 18.2502V21.9168H0.75V18.2502H6.25ZM33.75 18.2502H39.25V21.9168H33.75V18.2502ZM9 35.6668H31C31.9725 35.6668 32.9051 36.0531 33.5927 36.7408C34.2804 37.4284 34.6667 38.361 34.6667 39.3335H5.33333C5.33333 38.361 5.71964 37.4284 6.40728 36.7408C7.09491 36.0531 8.02754 35.6668 9 35.6668ZM20 8.16683C22.9174 8.16683 25.7153 9.32576 27.7782 11.3887C29.8411 13.4516 31 16.2494 31 19.1668V33.8335H9V19.1668C9 16.2494 10.1589 13.4516 12.2218 11.3887C14.2847 9.32576 17.0826 8.16683 20 8.16683Z" fill="white"/>
</svg>
