<svg width="16" height="17" viewBox="0 0 16 17" fill="none" xmlns="http://www.w3.org/2000/svg">
<path d="M2.18182 2.02382H5.49818C5.65065 2.02341 5.79939 2.07321 5.92337 2.16618C6.04735 2.25915 6.1403 2.39059 6.18909 2.54192L6.58182 3.79144C6.63061 3.94277 6.72356 4.07421 6.84754 4.16718C6.97152 4.26015 7.12026 4.30995 7.27273 4.30954H12.3636C12.5565 4.30954 12.7415 4.38981 12.8779 4.53269C13.0143 4.67558 13.0909 4.86937 13.0909 5.07144C13.0909 5.27351 13.1675 5.4673 13.3039 5.61019C13.4403 5.75307 13.6253 5.83334 13.8182 5.83334C14.0111 5.83334 14.1961 5.75307 14.3324 5.61019C14.4688 5.4673 14.5455 5.27351 14.5455 5.07144C14.5455 4.46523 14.3156 3.88385 13.9064 3.4552C13.4972 3.02654 12.9423 2.78573 12.3636 2.78573H7.79636L7.56364 2.02382C7.41276 1.57676 7.13291 1.18992 6.76284 0.916901C6.39277 0.643878 5.95081 0.498189 5.49818 0.500017H2.18182C1.60316 0.500017 1.04821 0.740832 0.63904 1.16949C0.229869 1.59814 0 2.17952 0 2.78573V12.6905C0 13.2967 0.229869 13.8781 0.63904 14.3067C1.04821 14.7354 1.60316 14.9762 2.18182 14.9762H6.54545C6.73834 14.9762 6.92332 14.8959 7.05971 14.753C7.1961 14.6102 7.27273 14.4164 7.27273 14.2143C7.27273 14.0122 7.1961 13.8184 7.05971 13.6755C6.92332 13.5327 6.73834 13.4524 6.54545 13.4524H2.18182C1.98893 13.4524 1.80395 13.3721 1.66756 13.2292C1.53117 13.0863 1.45455 12.8926 1.45455 12.6905V2.78573C1.45455 2.58366 1.53117 2.38987 1.66756 2.24698C1.80395 2.1041 1.98893 2.02382 2.18182 2.02382ZM14.5455 10.5419V9.64286C14.5455 9.03666 14.3156 8.45528 13.9064 8.02662C13.4972 7.59797 12.9423 7.35715 12.3636 7.35715C11.785 7.35715 11.23 7.59797 10.8209 8.02662C10.4117 8.45528 10.1818 9.03666 10.1818 9.64286V10.5419C9.75742 10.6991 9.38982 10.99 9.12941 11.3746C8.869 11.7593 8.72854 12.2189 8.72727 12.6905V14.2143C8.72727 14.8205 8.95714 15.4019 9.36631 15.8305C9.77548 16.2592 10.3304 16.5 10.9091 16.5H13.8182C14.3968 16.5 14.9518 16.2592 15.361 15.8305C15.7701 15.4019 16 14.8205 16 14.2143V12.6905C15.9987 12.2189 15.8583 11.7593 15.5979 11.3746C15.3375 10.99 14.9699 10.6991 14.5455 10.5419ZM11.6364 9.64286C11.6364 9.44079 11.713 9.247 11.8494 9.10412C11.9858 8.96123 12.1708 8.88096 12.3636 8.88096C12.5565 8.88096 12.7415 8.96123 12.8779 9.10412C13.0143 9.247 13.0909 9.44079 13.0909 9.64286V10.4048H11.6364V9.64286ZM14.5455 14.2143C14.5455 14.4164 14.4688 14.6102 14.3324 14.753C14.1961 14.8959 14.0111 14.9762 13.8182 14.9762H10.9091C10.7162 14.9762 10.5312 14.8959 10.3948 14.753C10.2584 14.6102 10.1818 14.4164 10.1818 14.2143V12.6905C10.1818 12.4884 10.2584 12.2946 10.3948 12.1517C10.5312 12.0088 10.7162 11.9286 10.9091 11.9286H13.8182C14.0111 11.9286 14.1961 12.0088 14.3324 12.1517C14.4688 12.2946 14.5455 12.4884 14.5455 12.6905V14.2143Z" fill="white"/>
</svg>
