<svg width="133" height="133" viewBox="0 0 133 133" fill="none" xmlns="http://www.w3.org/2000/svg">
<path opacity="0.5" d="M132.565 79.278V64.7305C132.565 47.3422 132.565 38.6414 127.478 32.9929C127.011 32.4715 126.517 31.9753 125.998 31.5064C120.349 26.426 111.648 26.426 94.2601 26.426H91.7893C84.172 26.426 80.3601 26.426 76.8058 25.4152C74.8552 24.8577 72.9754 24.0774 71.2034 23.0897C67.9795 21.2994 65.284 18.5973 59.8931 13.213L56.2595 9.57943C54.4493 7.76925 53.5509 6.87076 52.5995 6.07798C48.5079 2.68647 43.4887 0.607428 38.1973 0.11231C36.9685 -2.70723e-07 35.6869 0 33.1368 0C27.3032 0 24.3898 -4.43001e-07 21.9586 0.462455C16.7384 1.4483 11.9365 3.98463 8.17941 7.74052C4.42234 11.4964 1.88451 16.2975 0.897025 21.5174C0.43457 23.9552 0.43457 26.8753 0.43457 32.7022V79.278C0.43457 104.191 0.43457 116.651 8.17739 124.387C15.9136 132.13 28.3735 132.13 53.2866 132.13H79.7126C104.626 132.13 117.086 132.13 124.822 124.387C132.565 116.651 132.565 104.191 132.565 79.278Z" fill="#D8D8D8"/>
<path d="M68.1514 52.8523C68.1514 51.5382 68.6734 50.2779 69.6026 49.3487C70.5318 48.4195 71.7921 47.8975 73.1062 47.8975H106.139C107.453 47.8975 108.713 48.4195 109.642 49.3487C110.572 50.2779 111.094 51.5382 111.094 52.8523C111.094 54.1665 110.572 55.4267 109.642 56.356C108.713 57.2852 107.453 57.8072 106.139 57.8072H73.1062C71.7921 57.8072 70.5318 57.2852 69.6026 56.356C68.6734 55.4267 68.1514 54.1665 68.1514 52.8523Z" fill="#6C7278"/>
</svg>
