<svg width="24" height="24" viewBox="0 0 26 25" fill="none" xmlns="http://www.w3.org/2000/svg">
<path d="M12.9964 22.4935H4.24891C3.91749 22.4935 3.59964 22.3618 3.36529 22.1275C3.13093 21.8931 2.99928 21.5753 2.99928 21.2438V3.74891C2.99928 3.41749 3.13093 3.09964 3.36529 2.86529C3.59964 2.63093 3.91749 2.49928 4.24891 2.49928H10.4971V6.24819C10.4971 7.24246 10.8921 8.19601 11.5951 8.89907C12.2982 9.60213 13.2517 9.9971 14.246 9.9971H17.9949V11.2467C17.9949 11.5782 18.1266 11.896 18.3609 12.1304C18.5953 12.3647 18.9131 12.4964 19.2446 12.4964C19.576 12.4964 19.8938 12.3647 20.1282 12.1304C20.3625 11.896 20.4942 11.5782 20.4942 11.2467V8.74746C20.4942 8.74746 20.4942 8.74746 20.4942 8.67249C20.4812 8.55769 20.4561 8.44459 20.4192 8.33508V8.22262C20.3591 8.09413 20.279 7.97602 20.1818 7.87272L12.684 0.374891C12.5807 0.27769 12.4626 0.197544 12.3341 0.13746C12.2968 0.132162 12.2589 0.132162 12.2216 0.13746C12.0947 0.0646578 11.9545 0.0179251 11.8092 0H4.24891C3.25464 0 2.30109 0.394974 1.59803 1.09803C0.894974 1.80109 0.5 2.75464 0.5 3.74891V21.2438C0.5 22.2381 0.894974 23.1917 1.59803 23.8947C2.30109 24.5978 3.25464 24.9928 4.24891 24.9928H12.9964C13.3278 24.9928 13.6457 24.8611 13.88 24.6267C14.1144 24.3924 14.246 24.0745 14.246 23.7431C14.246 23.4117 14.1144 23.0938 13.88 22.8595C13.6457 22.6251 13.3278 22.4935 12.9964 22.4935ZM12.9964 4.26126L16.2329 7.49783H14.246C13.9146 7.49783 13.5967 7.36617 13.3624 7.13182C13.128 6.89746 12.9964 6.57961 12.9964 6.24819V4.26126ZM6.74819 7.49783C6.41676 7.49783 6.09891 7.62948 5.86456 7.86384C5.63021 8.09819 5.49855 8.41604 5.49855 8.74746C5.49855 9.07889 5.63021 9.39674 5.86456 9.63109C6.09891 9.86544 6.41676 9.9971 6.74819 9.9971H7.99783C8.32925 9.9971 8.6471 9.86544 8.88145 9.63109C9.11581 9.39674 9.24746 9.07889 9.24746 8.74746C9.24746 8.41604 9.11581 8.09819 8.88145 7.86384C8.6471 7.62948 8.32925 7.49783 7.99783 7.49783H6.74819ZM25.1304 22.8559L23.6683 21.4063C24.1356 20.5906 24.3226 19.6442 24.2008 18.7121C24.0789 17.7799 23.6548 16.9134 22.9935 16.2453C22.3849 15.6151 21.6007 15.1827 20.7429 15.0046C19.8851 14.8264 18.9936 14.9108 18.1844 15.2466C17.3753 15.5824 16.686 16.1541 16.2064 16.8872C15.7268 17.6204 15.4791 18.481 15.4957 19.3569C15.4914 20.1107 15.6842 20.8524 16.055 21.5087C16.4258 22.1649 16.9618 22.7128 17.6097 23.098C18.2576 23.4833 18.995 23.6924 19.7487 23.7047C20.5023 23.717 21.2461 23.5321 21.9063 23.1683L23.3559 24.6304C23.472 24.7475 23.6103 24.8405 23.7625 24.9039C23.9148 24.9673 24.0781 25 24.2431 25C24.4081 25 24.5714 24.9673 24.7237 24.9039C24.876 24.8405 25.0142 24.7475 25.1304 24.6304C25.2475 24.5142 25.3405 24.376 25.4039 24.2237C25.4673 24.0714 25.5 23.9081 25.5 23.7431C25.5 23.5781 25.4673 23.4148 25.4039 23.2625C25.3405 23.1103 25.2475 22.972 25.1304 22.8559ZM21.169 20.669C20.8121 21.0047 20.3406 21.1915 19.8506 21.1915C19.3607 21.1915 18.8892 21.0047 18.5323 20.669C18.1883 20.3189 17.9953 19.8477 17.9949 19.3569C17.9923 19.1104 18.0397 18.8659 18.1342 18.6383C18.2287 18.4106 18.3684 18.2045 18.5448 18.0323C18.8779 17.7009 19.3247 17.5088 19.7944 17.4949C20.0471 17.4794 20.3002 17.5163 20.5379 17.6032C20.7756 17.6901 20.9928 17.8252 21.1759 18C21.3589 18.1749 21.5039 18.3856 21.6016 18.6191C21.6993 18.8526 21.7478 19.1038 21.7438 19.3569C21.7335 19.8531 21.5268 20.325 21.169 20.669ZM14.246 12.4964H6.74819C6.41676 12.4964 6.09891 12.628 5.86456 12.8624C5.63021 13.0967 5.49855 13.4146 5.49855 13.746C5.49855 14.0774 5.63021 14.3953 5.86456 14.6296C6.09891 14.864 6.41676 14.9957 6.74819 14.9957H14.246C14.5774 14.9957 14.8953 14.864 15.1296 14.6296C15.364 14.3953 15.4957 14.0774 15.4957 13.746C15.4957 13.4146 15.364 13.0967 15.1296 12.8624C14.8953 12.628 14.5774 12.4964 14.246 12.4964ZM11.7467 19.9942C12.0782 19.9942 12.396 19.8625 12.6304 19.6282C12.8647 19.3938 12.9964 19.076 12.9964 18.7446C12.9964 18.4131 12.8647 18.0953 12.6304 17.8609C12.396 17.6266 12.0782 17.4949 11.7467 17.4949H6.74819C6.41676 17.4949 6.09891 17.6266 5.86456 17.8609C5.63021 18.0953 5.49855 18.4131 5.49855 18.7446C5.49855 19.076 5.63021 19.3938 5.86456 19.6282C6.09891 19.8625 6.41676 19.9942 6.74819 19.9942H11.7467Z" fill="black" fill-opacity="0.5" />
</svg>
