<svg width="70" height="70" viewBox="0 0 75 78" fill="none" xmlns="http://www.w3.org/2000/svg">
<g filter="url(#filter0_d_1448_11565)">
<rect x="4.5" width="66" height="70" rx="7.48" fill="white"/>
<path d="M38.636 33.0895C38.4838 32.9457 38.3044 32.8331 38.108 32.7579C37.7185 32.6 37.2815 32.6 36.892 32.7579C36.6956 32.8331 36.5162 32.9457 36.364 33.0895L33.164 36.2474C32.8627 36.5447 32.6935 36.948 32.6935 37.3684C32.6935 37.7889 32.8627 38.1922 33.164 38.4895C33.4653 38.7868 33.8739 38.9538 34.3 38.9538C34.7261 38.9538 35.1347 38.7868 35.436 38.4895L35.9 38.0158V42.1053C35.9 42.524 36.0686 42.9256 36.3686 43.2218C36.6687 43.5179 37.0757 43.6842 37.5 43.6842C37.9243 43.6842 38.3313 43.5179 38.6314 43.2218C38.9314 42.9256 39.1 42.524 39.1 42.1053V38.0158L39.564 38.4895C39.7127 38.6375 39.8897 38.7549 40.0847 38.8351C40.2797 38.9153 40.4888 38.9565 40.7 38.9565C40.9112 38.9565 41.1203 38.9153 41.3153 38.8351C41.5103 38.7549 41.6873 38.6375 41.836 38.4895C41.986 38.3427 42.105 38.1681 42.1862 37.9757C42.2675 37.7833 42.3093 37.5769 42.3093 37.3684C42.3093 37.16 42.2675 36.9536 42.1862 36.7612C42.105 36.5688 41.986 36.3942 41.836 36.2474L38.636 33.0895ZM48.7 24.7369H38.652L38.14 23.1579C37.8081 22.2314 37.1924 21.4298 36.3782 20.864C35.5641 20.2982 34.5918 19.9962 33.596 20H26.3C25.027 20 23.8061 20.4991 22.9059 21.3874C22.0057 22.2758 21.5 23.4806 21.5 24.7369V45.2632C21.5 46.5195 22.0057 47.7243 22.9059 48.6126C23.8061 49.5009 25.027 50 26.3 50H48.7C49.973 50 51.1939 49.5009 52.0941 48.6126C52.9943 47.7243 53.5 46.5195 53.5 45.2632V29.4737C53.5 28.2174 52.9943 27.0126 52.0941 26.1243C51.1939 25.2359 49.973 24.7369 48.7 24.7369ZM50.3 45.2632C50.3 45.6819 50.1314 46.0835 49.8314 46.3796C49.5313 46.6758 49.1243 46.8421 48.7 46.8421H26.3C25.8757 46.8421 25.4687 46.6758 25.1686 46.3796C24.8686 46.0835 24.7 45.6819 24.7 45.2632V24.7369C24.7 24.3181 24.8686 23.9165 25.1686 23.6204C25.4687 23.3243 25.8757 23.1579 26.3 23.1579H33.596C33.9314 23.1571 34.2586 23.2603 34.5314 23.4529C34.8042 23.6456 35.0087 23.918 35.116 24.2316L35.98 26.8211C36.0873 27.1347 36.2918 27.4071 36.5646 27.5997C36.8374 27.7924 37.1646 27.8956 37.5 27.8948H48.7C49.1243 27.8948 49.5313 28.0611 49.8314 28.3572C50.1314 28.6533 50.3 29.0549 50.3 29.4737V45.2632Z" fill="#1814F3"/>
</g>
<defs>
<filter id="filter0_d_1448_11565" x="0.5" y="0" width="74" height="78" filterUnits="userSpaceOnUse" color-interpolation-filters="sRGB">
<feFlood flood-opacity="0" result="BackgroundImageFix"/>
<feColorMatrix in="SourceAlpha" type="matrix" values="0 0 0 0 0 0 0 0 0 0 0 0 0 0 0 0 0 0 127 0" result="hardAlpha"/>
<feOffset dy="4"/>
<feGaussianBlur stdDeviation="2"/>
<feComposite in2="hardAlpha" operator="out"/>
<feColorMatrix type="matrix" values="0 0 0 0 0 0 0 0 0 0 0 0 0 0 0 0 0 0 0.15 0"/>
<feBlend mode="normal" in2="BackgroundImageFix" result="effect1_dropShadow_1448_11565"/>
<feBlend mode="normal" in="SourceGraphic" in2="effect1_dropShadow_1448_11565" result="shape"/>
</filter>
</defs>
</svg>
