<svg width="24" height="24" viewBox="0 0 36 36" fill="" xmlns="http://www.w3.org/2000/svg">
<path d="M14 20H2C1.46957 20 0.960859 20.2107 0.585786 20.5858C0.210714 20.9609 0 21.4696 0 22V34C0 34.5304 0.210714 35.0391 0.585786 35.4142C0.960859 35.7893 1.46957 36 2 36H14C14.5304 36 15.0391 35.7893 15.4142 35.4142C15.7893 35.0391 16 34.5304 16 34V22C16 21.4696 15.7893 20.9609 15.4142 20.5858C15.0391 20.2107 14.5304 20 14 20ZM12 32H4V24H12V32ZM34 0H22C21.4696 0 20.9609 0.210714 20.5858 0.585786C20.2107 0.960859 20 1.46957 20 2V14C20 14.5304 20.2107 15.0391 20.5858 15.4142C20.9609 15.7893 21.4696 16 22 16H34C34.5304 16 35.0391 15.7893 35.4142 15.4142C35.7893 15.0391 36 14.5304 36 14V2C36 1.46957 35.7893 0.960859 35.4142 0.585786C35.0391 0.210714 34.5304 0 34 0ZM32 12H24V4H32V12ZM34 26H30V22C30 21.4696 29.7893 20.9609 29.4142 20.5858C29.0391 20.2107 28.5304 20 28 20C27.4696 20 26.9609 20.2107 26.5858 20.5858C26.2107 20.9609 26 21.4696 26 22V26H22C21.4696 26 20.9609 26.2107 20.5858 26.5858C20.2107 26.9609 20 27.4696 20 28C20 28.5304 20.2107 29.0391 20.5858 29.4142C20.9609 29.7893 21.4696 30 22 30H26V34C26 34.5304 26.2107 35.0391 26.5858 35.4142C26.9609 35.7893 27.4696 36 28 36C28.5304 36 29.0391 35.7893 29.4142 35.4142C29.7893 35.0391 30 34.5304 30 34V30H34C34.5304 30 35.0391 29.7893 35.4142 29.4142C35.7893 29.0391 36 28.5304 36 28C36 27.4696 35.7893 26.9609 35.4142 26.5858C35.0391 26.2107 34.5304 26 34 26ZM14 0H2C1.46957 0 0.960859 0.210714 0.585786 0.585786C0.210714 0.960859 0 1.46957 0 2V14C0 14.5304 0.210714 15.0391 0.585786 15.4142C0.960859 15.7893 1.46957 16 2 16H14C14.5304 16 15.0391 15.7893 15.4142 15.4142C15.7893 15.0391 16 14.5304 16 14V2C16 1.46957 15.7893 0.960859 15.4142 0.585786C15.0391 0.210714 14.5304 0 14 0ZM12 12H4V4H12V12Z" fill="black" fill-opacity="0.5"/>
</svg>
