<svg width="44" height="44" viewBox="0 0 44 44" fill="none" xmlns="http://www.w3.org/2000/svg">
<g clip-path="url(#clip0_1363_2704)">
<path d="M30.5556 4.88867H13.4444C12.7961 4.88867 12.1744 5.14621 11.716 5.60463C11.2575 6.06306 11 6.68481 11 7.33312V36.6664C11 37.3148 11.2575 37.9365 11.716 38.3949C12.1744 38.8534 12.7961 39.1109 13.4444 39.1109H30.5556C31.2039 39.1109 31.8256 38.8534 32.284 38.3949C32.7425 37.9365 33 37.3148 33 36.6664V7.33312C33 6.68481 32.7425 6.06306 32.284 5.60463C31.8256 5.14621 31.2039 4.88867 30.5556 4.88867ZM13.4444 7.33312H30.5556V29.3331H13.4444V7.33312ZM13.4444 36.6664V31.7776H30.5556V36.6664H13.4444Z" fill="white"/>
<path d="M20.7773 33H23.2218V35.4444H20.7773V33Z" fill="white"/>
</g>
<defs>
<clipPath id="clip0_1363_2704">
<rect width="44" height="44" fill="white"/>
</clipPath>
</defs>
</svg>
