<svg width="24" height="24" viewBox="0 0 48 48" fill="none" xmlns="http://www.w3.org/2000/svg">
<path d="M40 35.14C40.9909 33.5163 41.4155 31.6099 41.2074 29.7192C40.9993 27.8285 40.1703 26.0601 38.85 24.6907C37.5297 23.3214 35.7927 22.4284 33.9108 22.1516C32.0289 21.8747 30.1083 22.2296 28.4496 23.1606C26.7909 24.0917 25.4876 25.5464 24.7438 27.2971C24 29.0478 23.8576 30.9957 24.3389 32.8359C24.8202 34.6762 25.898 36.305 27.4036 37.4674C28.9093 38.6298 30.7578 39.2602 32.66 39.26C34.2398 39.2526 35.788 38.8172 37.14 38L40.58 41.46C40.7659 41.6475 40.9871 41.7962 41.2308 41.8978C41.4746 41.9993 41.736 42.0516 42 42.0516C42.264 42.0516 42.5254 41.9993 42.7692 41.8978C43.0129 41.7962 43.2341 41.6475 43.42 41.46C43.6075 41.2741 43.7562 41.0529 43.8578 40.8092C43.9593 40.5654 44.0116 40.304 44.0116 40.04C44.0116 39.776 43.9593 39.5146 43.8578 39.2708C43.7562 39.0271 43.6075 38.8059 43.42 38.62L40 35.14ZM36 34C35.1185 34.84 33.9476 35.3086 32.73 35.3086C31.5124 35.3086 30.3415 34.84 29.46 34C28.5965 33.1307 28.1119 31.9552 28.1119 30.73C28.1119 29.5048 28.5965 28.3293 29.46 27.46C29.8891 27.03 30.3988 26.6889 30.9599 26.4562C31.521 26.2235 32.1225 26.1037 32.73 26.1037C33.3375 26.1037 33.939 26.2235 34.5001 26.4562C35.0612 26.6889 35.5709 27.03 36 27.46C36.8635 28.3293 37.3481 29.5048 37.3481 30.73C37.3481 31.9552 36.8635 33.1307 36 34ZM38 6H10C8.4087 6 6.88258 6.63214 5.75736 7.75736C4.63214 8.88258 4 10.4087 4 12V30C4 31.5913 4.63214 33.1174 5.75736 34.2426C6.88258 35.3679 8.4087 36 10 36H18C18.5304 36 19.0391 35.7893 19.4142 35.4142C19.7893 35.0391 20 34.5304 20 34C20 33.4696 19.7893 32.9609 19.4142 32.5858C19.0391 32.2107 18.5304 32 18 32H10C9.46957 32 8.96086 31.7893 8.58579 31.4142C8.21071 31.0391 8 30.5304 8 30V18H40V20C40 20.5304 40.2107 21.0391 40.5858 21.4142C40.9609 21.7893 41.4696 22 42 22C42.5304 22 43.0391 21.7893 43.4142 21.4142C43.7893 21.0391 44 20.5304 44 20V12C44 10.4087 43.3679 8.88258 42.2426 7.75736C41.1174 6.63214 39.5913 6 38 6ZM40 14H8V12C8 11.4696 8.21071 10.9609 8.58579 10.5858C8.96086 10.2107 9.46957 10 10 10H38C38.5304 10 39.0391 10.2107 39.4142 10.5858C39.7893 10.9609 40 11.4696 40 12V14ZM20 22H14C13.4696 22 12.9609 22.2107 12.5858 22.5858C12.2107 22.9609 12 23.4696 12 24C12 24.5304 12.2107 25.0391 12.5858 25.4142C12.9609 25.7893 13.4696 26 14 26H20C20.5304 26 21.0391 25.7893 21.4142 25.4142C21.7893 25.0391 22 24.5304 22 24C22 23.4696 21.7893 22.9609 21.4142 22.5858C21.0391 22.2107 20.5304 22 20 22Z" fill="black" fill-opacity="0.5"/>
</svg>
