<svg width="24" height="24" viewBox="0 0 26 25" fill="none" xmlns="http://www.w3.org/2000/svg">
<path d="M5.70801 22.9167C5.70866 23.469 5.92837 23.9985 6.31893 24.3891C6.70948 24.7797 7.23901 24.9994 7.79134 25H18.208C18.7603 24.9994 19.2899 24.7797 19.6804 24.3891C20.071 23.9985 20.2907 23.469 20.2913 22.9167V22.0052H5.70801V22.9167Z" fill="black" fill-opacity="0.5"/>
<path d="M20.2913 2.08333C20.2907 1.531 20.071 1.00148 19.6804 0.610917C19.2899 0.220358 18.7603 0.00065473 18.208 0L7.79134 0C7.23901 0.00065473 6.70948 0.220358 6.31893 0.610917C5.92837 1.00148 5.70866 1.531 5.70801 2.08333V3.125H20.2913V2.08333Z" fill="black" fill-opacity="0.5"/>
<path d="M25.2101 6.70052L22.0851 3.44531L20.5822 4.88802L21.8896 6.25H20.292V8.33333H22.002L20.613 9.66459L22.0544 11.1688L25.1794 8.17396C25.2782 8.07926 25.3574 7.96602 25.4124 7.8407C25.4674 7.71538 25.4972 7.58045 25.5001 7.44361C25.5029 7.30677 25.4788 7.17071 25.429 7.04321C25.3793 6.91571 25.3049 6.79926 25.2101 6.70052Z" fill="black" fill-opacity="0.5"/>
<path d="M17.1663 6.24999H20.2913V4.16666H5.70801V16.6667H8.83301V18.75H5.70801V20.8333H20.2913V8.33332H17.1663V6.24999ZM16.1247 10.4167H12.4788C12.3407 10.4167 12.2082 10.4715 12.1106 10.5692C12.0129 10.6669 11.958 10.7994 11.958 10.9375C11.958 11.0756 12.0129 11.2081 12.1106 11.3058C12.2082 11.4035 12.3407 11.4583 12.4788 11.4583H13.5205C14.1663 11.4577 14.7893 11.697 15.2686 12.1299C15.7479 12.5627 16.0492 13.1582 16.1141 13.8008C16.179 14.4433 16.0029 15.087 15.6198 15.607C15.2368 16.127 14.6742 16.4861 14.0413 16.6146V17.7083H11.958V16.6667H9.87467V14.5833H13.5205C13.6586 14.5833 13.7911 14.5285 13.8888 14.4308C13.9865 14.3331 14.0413 14.2006 14.0413 14.0625C14.0413 13.9244 13.9865 13.7919 13.8888 13.6942C13.7911 13.5965 13.6586 13.5417 13.5205 13.5417H12.4788C11.833 13.5423 11.21 13.303 10.7308 12.8701C10.2515 12.4372 9.95014 11.8417 9.88524 11.1992C9.82034 10.5567 9.9965 9.91293 10.3795 9.39297C10.7626 8.87301 11.3251 8.51392 11.958 8.38541V7.29166H14.0413V8.33332H16.1247V10.4167Z" fill="black" fill-opacity="0.5"/>
<path d="M3.99828 16.6667L5.38734 15.3354L3.94593 13.8312L0.820931 16.826C0.722115 16.9207 0.642929 17.034 0.587901 17.1593C0.532873 17.2846 0.50308 17.4195 0.500226 17.5564C0.497373 17.6932 0.521513 17.8293 0.571269 17.9568C0.621025 18.0843 0.69542 18.2007 0.790202 18.2995L3.9152 21.5547L5.41807 20.112L4.11064 18.75H5.7083V16.6667H3.99828Z" fill="black" fill-opacity="0.5"/>
</svg>
