<svg width="24" height="24" viewBox="0 0 48 48" fill="none" xmlns="http://www.w3.org/2000/svg">
<path d="M39.8 25.32C39.4794 24.955 39.3026 24.4858 39.3026 24C39.3026 23.5142 39.4794 23.045 39.8 22.68L42.36 19.8C42.6421 19.4853 42.8173 19.0894 42.8604 18.669C42.9035 18.2486 42.8124 17.8254 42.6 17.46L38.6 10.54C38.3898 10.175 38.0698 9.88576 37.6855 9.71338C37.3013 9.54099 36.8724 9.49432 36.46 9.58L32.7 10.34C32.2216 10.4389 31.7235 10.3592 31.2998 10.116C30.8761 9.87283 30.556 9.48297 30.4 9.02L29.18 5.36C29.0459 4.96276 28.7902 4.61773 28.4493 4.37369C28.1083 4.12964 27.6993 3.99892 27.28 4H19.28C18.8439 3.97724 18.4123 4.09786 18.0512 4.34343C17.69 4.58901 17.4192 4.94604 17.28 5.36L16.16 9.02C16.004 9.48297 15.684 9.87283 15.2603 10.116C14.8365 10.3592 14.3385 10.4389 13.86 10.34L10 9.58C9.60914 9.52477 9.21064 9.58645 8.85473 9.75728C8.49883 9.92812 8.20144 10.2005 8.00004 10.54L4.00004 17.46C3.78236 17.8213 3.68448 18.2422 3.7204 18.6625C3.75632 19.0827 3.9242 19.4809 4.20004 19.8L6.74004 22.68C7.06067 23.045 7.23751 23.5142 7.23751 24C7.23751 24.4858 7.06067 24.955 6.74004 25.32L4.20004 28.2C3.9242 28.5191 3.75632 28.9173 3.7204 29.3376C3.68448 29.7578 3.78236 30.1787 4.00004 30.54L8.00004 37.46C8.21023 37.825 8.53027 38.1143 8.91454 38.2866C9.29881 38.459 9.72768 38.5057 10.14 38.42L13.9 37.66C14.3785 37.5611 14.8765 37.6408 15.3003 37.884C15.724 38.1272 16.044 38.517 16.2 38.98L17.42 42.64C17.5592 43.054 17.83 43.411 18.1912 43.6566C18.5523 43.9021 18.9839 44.0228 19.42 44H27.42C27.8393 44.0011 28.2483 43.8704 28.5893 43.6263C28.9302 43.3823 29.1859 43.0372 29.32 42.64L30.54 38.98C30.696 38.517 31.0161 38.1272 31.4398 37.884C31.8635 37.6408 32.3616 37.5611 32.84 37.66L36.6 38.42C37.0124 38.5057 37.4413 38.459 37.8255 38.2866C38.2098 38.1143 38.5298 37.825 38.74 37.46L42.74 30.54C42.9524 30.1746 43.0435 29.7514 43.0004 29.331C42.9573 28.9106 42.7821 28.5147 42.5 28.2L39.8 25.32ZM36.82 28L38.42 29.8L35.86 34.24L33.5 33.76C32.0596 33.4656 30.5612 33.7102 29.2892 34.4476C28.0173 35.185 27.0603 36.3637 26.6 37.76L25.84 40H20.72L20 37.72C19.5397 36.3237 18.5828 35.145 17.3108 34.4076C16.0389 33.6702 14.5405 33.4256 13.1 33.72L10.74 34.2L8.14004 29.78L9.74004 27.98C10.7239 26.88 11.2679 25.4559 11.2679 23.98C11.2679 22.5041 10.7239 21.08 9.74004 19.98L8.14004 18.18L10.7 13.78L13.06 14.26C14.5005 14.5544 15.9989 14.3098 17.2708 13.5724C18.5428 12.835 19.4997 11.6563 19.96 10.26L20.72 8H25.84L26.6 10.28C27.0603 11.6763 28.0173 12.855 29.2892 13.5924C30.5612 14.3298 32.0596 14.5744 33.5 14.28L35.86 13.8L38.42 18.24L36.82 20.04C35.8472 21.1375 35.31 22.5534 35.31 24.02C35.31 25.4866 35.8472 26.9025 36.82 28ZM23.28 16C21.6978 16 20.1511 16.4692 18.8355 17.3482C17.5199 18.2273 16.4945 19.4767 15.889 20.9385C15.2835 22.4003 15.1251 24.0089 15.4338 25.5607C15.7424 27.1126 16.5044 28.538 17.6232 29.6569C18.742 30.7757 20.1675 31.5376 21.7193 31.8463C23.2712 32.155 24.8797 31.9965 26.3415 31.391C27.8033 30.7855 29.0527 29.7602 29.9318 28.4446C30.8108 27.129 31.28 25.5823 31.28 24C31.28 21.8783 30.4372 19.8434 28.9369 18.3431C27.4366 16.8429 25.4018 16 23.28 16ZM23.28 28C22.4889 28 21.7156 27.7654 21.0578 27.3259C20.4 26.8864 19.8873 26.2616 19.5845 25.5307C19.2818 24.7998 19.2026 23.9956 19.3569 23.2196C19.5112 22.4437 19.8922 21.731 20.4516 21.1716C21.011 20.6122 21.7238 20.2312 22.4997 20.0769C23.2756 19.9225 24.0799 20.0017 24.8108 20.3045C25.5417 20.6072 26.1664 21.1199 26.6059 21.7777C27.0454 22.4355 27.28 23.2089 27.28 24C27.28 25.0609 26.8586 26.0783 26.1085 26.8284C25.3583 27.5786 24.3409 28 23.28 28Z" fill="black" fill-opacity="0.5"/>
</svg>
