<svg width="24" height="24" viewBox="0 0 24 24" fill="none" xmlns="http://www.w3.org/2000/svg">
<path d="M8.9796 7.44785H16.6463C16.9852 7.44785 17.3102 7.32669 17.5498 7.11102C17.7894 6.89536 17.924 6.60285 17.924 6.29785C17.924 5.99285 17.7894 5.70035 17.5498 5.48468C17.3102 5.26901 16.9852 5.14785 16.6463 5.14785H8.9796C8.64071 5.14785 8.31571 5.26901 8.07608 5.48468C7.83645 5.70035 7.70182 5.99285 7.70182 6.29785C7.70182 6.60285 7.83645 6.89536 8.07608 7.11102C8.31571 7.32669 8.64071 7.44785 8.9796 7.44785ZM6.42405 12.0478H16.6463C16.9852 12.0478 17.3102 11.9267 17.5498 11.711C17.7894 11.4954 17.924 11.2028 17.924 10.8979C17.924 10.5929 17.7894 10.3003 17.5498 10.0847C17.3102 9.86901 16.9852 9.74785 16.6463 9.74785H6.42405C6.08516 9.74785 5.76015 9.86901 5.52052 10.0847C5.28089 10.3003 5.14627 10.5929 5.14627 10.8979C5.14627 11.2028 5.28089 11.4954 5.52052 11.711C5.76015 11.9267 6.08516 12.0478 6.42405 12.0478ZM6.42405 16.6479H16.6463C16.9852 16.6479 17.3102 16.5267 17.5498 16.311C17.7894 16.0954 17.924 15.8028 17.924 15.4978C17.924 15.1929 17.7894 14.9003 17.5498 14.6847C17.3102 14.469 16.9852 14.3478 16.6463 14.3478H6.42405C6.08516 14.3478 5.76015 14.469 5.52052 14.6847C5.28089 14.9003 5.14627 15.1929 5.14627 15.4978C5.14627 15.8028 5.28089 16.0954 5.52052 16.311C5.76015 16.5267 6.08516 16.6479 6.42405 16.6479ZM21.7574 0.547852H1.31293C0.974046 0.547852 0.649038 0.669012 0.409409 0.884679C0.169779 1.10035 0.0351563 1.39285 0.0351562 1.69785V22.3978C0.0351562 22.6114 0.101236 22.8208 0.225991 23.0024C0.350747 23.1841 0.529248 23.3309 0.741494 23.4264C0.953741 23.5219 1.19135 23.5624 1.42769 23.5432C1.66403 23.524 1.88976 23.446 2.0796 23.3178L4.7246 21.5353L7.35682 23.3178C7.578 23.4671 7.84702 23.5478 8.12349 23.5478C8.39996 23.5478 8.66898 23.4671 8.89016 23.3178L11.5352 21.5353L14.1802 23.3178C14.4013 23.4671 14.6704 23.5478 14.9468 23.5478C15.2233 23.5478 15.4923 23.4671 15.7135 23.3178L18.3457 21.5353L20.9907 23.3178C21.1815 23.4458 21.4081 23.5233 21.6452 23.5416C21.8822 23.5599 22.1202 23.5182 22.3324 23.4213C22.5431 23.3258 22.7203 23.1796 22.8444 22.9989C22.9684 22.8183 23.0344 22.6102 23.0352 22.3978V1.69785C23.0352 1.39285 22.9005 1.10035 22.6609 0.884679C22.4213 0.669012 22.0963 0.547852 21.7574 0.547852ZM20.4796 20.0978L19.1124 19.1779C18.8912 19.0286 18.6222 18.9478 18.3457 18.9478C18.0692 18.9478 17.8002 19.0286 17.579 19.1779L14.9468 20.9603L12.3018 19.1779C12.0806 19.0286 11.8116 18.9478 11.5352 18.9478C11.2587 18.9478 10.9897 19.0286 10.7685 19.1779L8.12349 20.9603L5.49127 19.1779C5.27009 19.0286 5.00107 18.9478 4.7246 18.9478C4.44813 18.9478 4.17911 19.0286 3.95793 19.1779L2.59071 20.0978V2.84785H20.4796V20.0978Z" fill="black"/>
</svg>
