<svg width="282" height="28" viewBox="0 0 282 28" fill="none" xmlns="http://www.w3.org/2000/svg">
<path d="M180.21 11.9187C180.386 11.916 180.144 11.8977 179.484 11.8637C178.826 11.8737 178.189 11.9052 177.575 11.9584L180.21 11.9187ZM56.5713 13.8504C56.7476 13.8917 57.0989 13.8864 57.6252 13.8345C58.1961 13.8259 58.7234 13.8399 59.2071 13.8765C59.2949 13.8752 59.2287 13.8542 59.0085 13.8136C58.7889 13.8169 58.5035 13.8212 58.1522 13.8265C57.8448 13.8312 57.5154 13.8362 57.1641 13.8415C56.8567 13.8461 56.6591 13.8491 56.5713 13.8504ZM7.91506 7.33724C8.00156 7.24808 8.08806 7.15893 8.17457 7.06978C8.30498 6.97996 8.4354 6.89015 8.56582 6.80033C8.56515 6.75642 8.5432 6.75675 8.49995 6.80132C8.45669 6.8459 8.39149 6.89081 8.30432 6.93605C8.21782 7.0252 8.13065 7.07044 8.04282 7.07177C7.99957 7.11634 7.97762 7.11667 7.97695 7.07276C7.80262 7.16324 7.69416 7.25272 7.65158 7.34121C7.56441 7.38645 7.47758 7.45365 7.39107 7.5428C7.21741 7.6772 7.24003 7.72078 7.45893 7.67355C7.37177 7.71879 7.26331 7.80827 7.13356 7.942C7.22006 7.85285 7.28527 7.80794 7.32918 7.80728L7.52381 7.60669C7.56772 7.60602 7.63293 7.56111 7.71943 7.47196C7.76335 7.4713 7.82856 7.42639 7.91506 7.33724ZM4.45571 9.49779C4.45439 9.40996 4.49764 9.36539 4.58547 9.36406L4.7801 9.16347C4.73618 9.16413 4.71456 9.18642 4.71522 9.23033L4.71721 9.36207C4.63071 9.45123 4.58812 9.53972 4.58944 9.62755C4.54619 9.67212 4.5249 9.71637 4.52556 9.76028L4.52655 9.82615C4.52722 9.87007 4.57146 9.89136 4.65929 9.89004C4.91747 9.53475 5.11144 9.29024 5.24119 9.15651C5.28444 9.11193 5.30607 9.08964 5.30607 9.08964C5.34998 9.08898 5.39357 9.06636 5.43682 9.02178C5.52332 8.93263 5.56657 8.88805 5.56657 8.88805C5.60916 8.79956 5.65208 8.73303 5.69533 8.68845C5.73924 8.68779 5.78283 8.66517 5.82608 8.62059C5.91258 8.53144 5.9555 8.46491 5.95484 8.42099C5.99809 8.37642 6.04134 8.33184 6.08459 8.28726C6.12784 8.24269 6.14881 8.17649 6.14748 8.08866L6.08161 8.08965C6.0377 8.09031 5.99411 8.11293 5.95086 8.15751C5.81912 8.1595 5.66641 8.22769 5.49275 8.36208C5.49275 8.36208 5.40558 8.40732 5.23125 8.4978C5.18866 8.58629 5.0802 8.67577 4.90587 8.76625C4.77612 8.89998 4.58215 9.14449 4.32397 9.49978C4.3253 9.58761 4.36921 9.58695 4.45571 9.49779ZM23.7355 16.5861C23.7355 16.5861 23.6473 16.5654 23.471 16.5242C23.2947 16.4829 23.1184 16.4416 22.942 16.4004C22.7664 16.403 22.5907 16.4057 22.4151 16.4083C22.2833 16.4103 22.2178 16.4333 22.2185 16.4772C22.5698 16.4719 22.8333 16.4679 23.0089 16.4653C23.2291 16.5059 23.4713 16.5461 23.7355 16.5861ZM7.09426 14.07C6.96186 14.0281 6.89566 14.0071 6.89566 14.0071C6.89632 14.051 6.91894 14.0946 6.96352 14.1378C7.00809 14.1811 7.05267 14.2243 7.09725 14.2676C7.14182 14.3109 7.1202 14.3331 7.03237 14.3345C7.25326 14.419 7.34109 14.4177 7.29585 14.3305C7.25061 14.2433 7.18342 14.1565 7.09426 14.07ZM3.2039 13.8652C3.15933 13.8219 3.11508 13.8006 3.07117 13.8013C3.07117 13.8013 3.04888 13.7796 3.0043 13.7364C2.91515 13.6499 2.87057 13.6066 2.87057 13.6066C2.95973 13.6931 3.09346 13.8229 3.27176 13.9959C3.45007 14.1689 3.67196 14.3193 3.93743 14.4471C4.15965 14.6194 4.40316 14.7475 4.66797 14.8313C4.93345 14.9591 5.17663 15.0653 5.39752 15.1498C5.48601 15.1924 5.50797 15.192 5.4634 15.1488C5.4634 15.1488 5.41915 15.1275 5.33066 15.0849C5.28675 15.0856 5.1763 15.0433 4.99932 14.9581L4.60111 14.7665L3.6041 14.1885C3.51495 14.102 3.44808 14.0372 3.4035 13.9939C3.35959 13.9946 3.29306 13.9517 3.2039 13.8652ZM1.15693 13.5666C1.06712 13.4362 0.999922 13.3494 0.955345 13.3061C0.911431 13.3068 0.912094 13.3507 0.957334 13.4379C1.00191 13.4811 1.0242 13.5027 1.0242 13.5027C1.02486 13.5466 1.06977 13.6119 1.15892 13.6984C1.15959 13.7423 1.20449 13.8075 1.29365 13.894C1.29431 13.9379 1.33922 14.0031 1.42837 14.0896L1.62897 14.2842C1.67354 14.3275 1.69583 14.3491 1.69583 14.3491C1.69649 14.393 1.71911 14.4366 1.76369 14.4799L1.96428 14.6745L2.16488 14.8691C2.25337 14.9117 2.36448 14.9979 2.49821 15.1276C2.5867 15.1702 2.67552 15.2348 2.76468 15.3213C2.8525 15.3199 2.65191 15.1253 2.16289 14.7374C2.0744 14.6948 2.00787 14.6519 1.96329 14.6086C1.96263 14.5647 1.91805 14.5215 1.82956 14.4789C1.78432 14.3917 1.73941 14.3265 1.69484 14.2832C1.65092 14.2839 1.60635 14.2407 1.56111 14.1535C1.47195 14.067 1.42738 14.0237 1.42738 14.0237C1.3828 13.9805 1.36018 13.9369 1.35952 13.893C1.35952 13.893 1.33723 13.8714 1.29265 13.8281C1.29265 13.8281 1.27003 13.7845 1.22479 13.6974C1.18022 13.6541 1.1576 13.6105 1.15693 13.5666ZM52.7572 23.0661C52.493 23.0262 52.0975 23.0102 51.5705 23.0181C51.0436 23.0261 50.4946 23.0344 49.9237 23.043C49.3529 23.0516 48.8039 23.0599 48.277 23.0678C47.7939 23.0751 47.4433 23.1243 47.225 23.2155C48.1911 23.2009 49.0691 23.1657 49.8589 23.1098C50.6493 23.0979 51.6154 23.0833 52.7572 23.0661ZM6.11044 9.99991C6.24019 9.86618 6.34865 9.77669 6.43582 9.73145L6.36994 9.73245L6.37094 9.79832L6.30507 9.79931L6.24019 9.86618L6.11044 9.99991ZM61.6423 13.708L61.8399 13.705L61.6423 13.708ZM6.36994 9.73245L6.43582 9.73145L6.36994 9.73245ZM6.36994 9.73245L6.37094 9.79832L6.36994 9.73245ZM6.95384 9.13066L6.95483 9.19653L6.95384 9.13066ZM6.88896 9.19753C6.93287 9.19686 6.9545 9.17458 6.95384 9.13066C6.95384 9.13066 6.93221 9.15295 6.88896 9.19753ZM6.24019 9.86618L6.30606 9.86518L6.24019 9.86618ZM6.30507 9.79931L6.37094 9.79832C6.32702 9.79898 6.3054 9.82127 6.30606 9.86518L6.30507 9.79931ZM6.82508 9.33026L6.75921 9.33126C6.80312 9.33059 6.82475 9.30831 6.82408 9.26439L6.82508 9.33026C6.73857 9.41942 6.67337 9.46433 6.62945 9.46499C6.5862 9.50956 6.52132 9.57643 6.43482 9.66558L6.50069 9.66459L6.4997 9.59872L6.56557 9.59772L6.56458 9.53185C6.60849 9.53119 6.63011 9.5089 6.62945 9.46499L6.69532 9.46399L6.69433 9.39812L6.7602 9.39713L6.69433 9.39812C6.73758 9.35355 6.75921 9.33126 6.75921 9.33126L6.82508 9.33026ZM6.43582 9.73145L6.43482 9.66558L6.43582 9.73145ZM6.82508 9.33026L6.82408 9.26439L6.82508 9.33026ZM6.62945 9.46499L6.63045 9.53086L6.56458 9.53185C6.60849 9.53119 6.63011 9.5089 6.62945 9.46499C6.67337 9.46433 6.69499 9.44204 6.69433 9.39812C6.65108 9.4427 6.62945 9.46499 6.62945 9.46499ZM6.56458 9.53185L6.56557 9.59772L6.56458 9.53185ZM6.56557 9.59772L6.4997 9.59872L6.56557 9.59772ZM6.43482 9.66558L6.50069 9.66459L6.43482 9.66558ZM7.21334 8.8632L7.21235 8.79733L7.21334 8.8632ZM6.95483 9.19653L6.88896 9.19753L6.95483 9.19653ZM6.43482 9.66558L6.43582 9.73145L6.43482 9.66558ZM6.82408 9.26439L6.88896 9.19753C6.84571 9.2421 6.82408 9.26439 6.82408 9.26439C6.868 9.26373 6.88962 9.24144 6.88896 9.19753C6.84571 9.2421 6.82408 9.26439 6.82408 9.26439ZM7.53574 8.39714C7.53574 8.39714 7.55737 8.37485 7.60062 8.33027C7.5567 8.33093 7.53508 8.35322 7.53574 8.39714ZM7.98789 7.79734L7.9869 7.73147C7.98756 7.77538 7.96593 7.79767 7.92202 7.79833C7.92202 7.79833 7.92235 7.82029 7.92301 7.8642C7.92301 7.8642 7.94464 7.84192 7.98789 7.79734ZM7.40599 8.53087C7.4499 8.5302 7.47153 8.50792 7.47086 8.464C7.51478 8.46334 7.5364 8.44105 7.53574 8.39714L7.53673 8.46301C7.49282 8.46367 7.47086 8.464 7.47086 8.464C7.47153 8.50792 7.4499 8.5302 7.40599 8.53087ZM8.05277 7.73047L7.9869 7.73147L8.05177 7.6646L8.05277 7.73047ZM7.40599 8.53087L7.40698 8.59674L7.40599 8.53087ZM8.05078 7.59873L8.05177 7.6646L8.05078 7.59873ZM7.79326 7.99793C7.83717 7.99727 7.8588 7.97498 7.85814 7.93107L7.79326 7.99793ZM7.79425 8.06381C7.70775 8.15296 7.66483 8.21949 7.66549 8.26341C7.66483 8.21949 7.6645 8.19754 7.6645 8.19754C7.70841 8.19687 7.73004 8.17458 7.72938 8.13067L7.79425 8.06381ZM7.98789 7.79734C7.94398 7.798 7.92235 7.82029 7.92301 7.8642L7.98789 7.79734ZM7.92401 7.93008L7.85814 7.93107L7.92401 7.93008ZM7.92401 7.93008L7.92301 7.8642C7.83651 7.95336 7.79359 8.01989 7.79425 8.06381C7.79293 7.97598 7.83618 7.9314 7.92401 7.93008L7.92301 7.8642L7.92401 7.93008ZM7.60062 8.33027C7.59995 8.28636 7.62158 8.26407 7.66549 8.26341C7.62158 8.26407 7.59995 8.28636 7.60062 8.33027ZM1.28669 13.4329C1.37584 13.5194 1.42075 13.5846 1.42141 13.6285L1.42042 13.5626C1.42042 13.5626 1.37584 13.5194 1.28669 13.4329ZM7.73037 8.19654L7.72938 8.13067L7.73037 8.19654ZM7.9869 7.73147L7.98789 7.79734L7.9869 7.73147ZM7.79326 7.99793L7.79425 8.06381L7.72938 8.13067L7.79425 8.06381L7.79326 7.99793ZM6.95284 9.06479L6.95384 9.13066C6.95317 9.08675 6.9748 9.06446 7.01871 9.0638L6.95284 9.06479ZM6.95483 9.19653L6.88896 9.19753L6.95483 9.19653ZM7.0826 8.93106L7.14847 8.93007C7.10455 8.93073 7.08293 8.95302 7.08359 8.99693L7.0826 8.93106ZM6.95384 9.13066L6.88896 9.19753C6.93287 9.19686 6.9545 9.17458 6.95384 9.13066ZM7.01871 9.0638C7.01871 9.0638 7.04034 9.04151 7.08359 8.99693L7.01772 8.99793L7.01871 9.0638ZM6.95384 9.13066L6.95483 9.19653C7.04001 9.01955 7.12618 8.90844 7.21334 8.8632L7.14747 8.8642L7.14847 8.93007C7.06196 9.01922 6.99676 9.06413 6.95284 9.06479L6.95384 9.13066ZM7.3431 8.72947L7.27723 8.73047L7.3431 8.72947ZM7.14847 8.93007C7.10455 8.93073 7.0826 8.93106 7.0826 8.93106C7.08326 8.97498 7.06163 8.99726 7.01772 8.99793C7.01838 9.04184 6.99709 9.08609 6.95384 9.13066C6.95317 9.08675 6.9748 9.06446 7.01871 9.0638L7.01772 8.99793L7.08359 8.99693C7.08359 8.99693 7.10521 8.97464 7.14847 8.93007ZM7.3421 8.6636L7.40698 8.59674L7.3421 8.6636ZM7.40698 8.59674L7.40599 8.53087L7.40698 8.59674ZM7.3431 8.72947L7.3421 8.6636L7.3431 8.72947ZM7.27723 8.73047L7.27822 8.79634L7.27723 8.73047ZM7.27822 8.79634L7.27723 8.73047L7.40698 8.59674L7.21235 8.79733L7.27822 8.79634ZM7.14747 8.8642L7.14847 8.93007C7.1478 8.88615 7.14747 8.8642 7.14747 8.8642C7.19139 8.86353 7.21301 8.84125 7.21235 8.79733C7.1691 8.84191 7.14747 8.8642 7.14747 8.8642ZM7.53574 8.39714C7.44924 8.48629 7.40599 8.53087 7.40599 8.53087L7.60062 8.33027L7.53574 8.39714ZM13.7216 7.90847C13.5007 7.82395 13.3021 7.76106 13.1258 7.7198C12.9941 7.72179 12.9279 7.70083 12.9272 7.65691C13.0144 7.61167 13.1684 7.63131 13.3893 7.71583C13.6541 7.79968 13.9405 7.86124 14.2486 7.90052C14.0277 7.816 13.8291 7.75311 13.6528 7.71185C13.4771 7.7145 13.2789 7.67357 13.058 7.58905C12.8816 7.54779 12.7053 7.50653 12.529 7.46526C12.3527 7.424 12.1764 7.38274 12.0001 7.34148C11.6468 7.21504 11.3154 7.08826 11.006 6.96116C10.7412 6.87731 10.5203 6.7928 10.3433 6.70762C10.2994 6.70828 10.2775 6.70861 10.2775 6.70861C10.322 6.75186 10.3663 6.77316 10.4102 6.77249C10.4109 6.81641 10.4332 6.83803 10.4771 6.83737C10.5216 6.88062 10.5439 6.90225 10.5439 6.90225C10.5878 6.90159 10.6321 6.92288 10.6767 6.96613C10.7658 7.05263 10.8766 7.11685 11.009 7.15877C11.1414 7.2007 11.2522 7.26491 11.3413 7.35142L11.6707 7.34645C11.8903 7.34313 12.0885 7.38406 12.2655 7.46924C12.5303 7.55309 12.5746 7.57439 12.3983 7.53312C12.2226 7.53577 12.1571 7.55873 12.2016 7.60198C12.5543 7.6845 12.8846 7.7454 13.1927 7.78468C13.5014 7.86787 13.854 7.95039 14.2506 8.03226C14.3823 8.03027 14.382 8.00831 14.2496 7.96639C14.1179 7.96837 13.9419 7.94907 13.7216 7.90847ZM26.1531 10.8834C26.0207 10.8415 25.8227 10.8225 25.5593 10.8265C25.6471 10.8251 25.7569 10.8235 25.8886 10.8215C26.0204 10.8195 26.1085 10.8401 26.1531 10.8834C26.4605 10.8787 26.7023 10.8971 26.8787 10.9383C26.7463 10.8964 26.5264 10.8778 26.219 10.8824L26.1531 10.8834ZM37.2942 11.3082C35.4485 11.2482 33.6687 11.1872 31.9547 11.1253C30.2407 11.0633 28.5487 11.001 26.8787 10.9383C30.3518 11.1495 33.846 11.2944 37.3611 11.3731C39.3824 11.4304 41.4031 11.4439 43.4232 11.4134C45.4439 11.4268 47.5085 11.4396 49.617 11.4517C50.144 11.4437 50.3193 11.4191 50.143 11.3779C50.0113 11.3799 49.7701 11.4055 49.4194 11.4547C47.3109 11.4426 45.2463 11.4298 43.2256 11.4164C41.2488 11.4023 39.2717 11.3662 37.2942 11.3082ZM31.7611 11.3917C32.1569 11.4297 32.5525 11.4457 32.9477 11.4397C33.343 11.4337 33.6504 11.4291 33.8699 11.4258C33.1234 11.4371 32.5083 11.4244 32.0245 11.3878C31.5408 11.3511 30.9473 11.3162 30.244 11.2828C30.2886 11.3261 30.4426 11.3457 30.7061 11.3418C31.0142 11.381 31.3658 11.3977 31.7611 11.3917ZM34.1334 11.4218C36.5074 11.5617 38.924 11.6131 41.3832 11.5759C43.843 11.5827 46.4566 11.5872 49.2238 11.5894C46.8511 11.5374 44.4129 11.5083 41.9092 11.5021C39.4061 11.5399 36.8141 11.5131 34.1334 11.4218ZM18.8034 12.8391C18.3629 12.7579 17.9667 12.698 17.6147 12.6594C17.2627 12.6208 16.9547 12.5815 16.6905 12.5416C16.5595 12.5875 16.6919 12.6294 17.0878 12.6673C17.4836 12.7053 17.8576 12.7436 18.2095 12.7822C18.5183 12.8654 18.9584 12.9246 19.5299 12.9599C20.1022 13.0391 20.7402 13.1173 21.4442 13.1946C22.1481 13.2718 22.8298 13.3274 23.4892 13.3614C24.1492 13.4393 24.7207 13.4746 25.2038 13.4673C24.9842 13.4706 24.5005 13.434 23.7526 13.3574C23.0487 13.2802 22.2569 13.2043 21.3773 13.1297C20.9375 13.0924 20.4977 13.0551 20.0579 13.0178C19.6181 12.9805 19.1999 12.921 18.8034 12.8391ZM9.1733 12.1279C9.0409 12.086 8.99665 12.0647 9.04057 12.064C9.08514 12.1073 9.12972 12.1505 9.1743 12.1938C9.26279 12.2364 9.30703 12.2577 9.30703 12.2577C9.35161 12.3009 9.3077 12.3016 9.17529 12.2597C9.17662 12.3475 9.28706 12.3897 9.50663 12.3864C9.72687 12.427 9.8809 12.4467 9.96872 12.4453C9.8809 12.4467 9.74849 12.4047 9.57151 12.3196L9.1733 12.1279ZM22.0169 16.2167C21.5751 16.0476 20.8921 15.9042 19.9679 15.7864C19.4835 15.7059 18.9775 15.6476 18.4499 15.6116C17.9223 15.5757 17.3727 15.5401 16.8011 15.5048C16.889 15.5034 17.1308 15.5217 17.5267 15.5597C17.9233 15.6416 18.3857 15.7224 18.914 15.8023C19.4862 15.8815 20.0361 15.9391 20.5637 15.9751C21.1359 16.0543 21.6203 16.1348 22.0169 16.2167ZM225.699 22.4987C225.743 22.498 226.599 22.4412 228.266 22.3281C229.934 22.2151 232.127 22.0283 234.846 21.7676C237.566 21.507 240.635 21.1751 244.055 20.7721C247.52 20.4124 251.005 19.9645 254.511 19.4284C258.061 18.8917 261.477 18.2691 264.761 17.5607C268.089 16.8955 270.998 16.1269 273.489 15.2547C275.98 14.4265 277.899 13.5191 279.246 12.5324C280.592 11.5458 281.037 10.4629 280.58 9.28388C280.077 7.97375 279.689 6.99132 279.416 6.33658C279.186 5.68119 278.895 5.26831 278.541 5.09796C278.231 4.92694 277.769 4.9339 277.157 5.11884C276.589 5.30311 275.715 5.57985 274.534 5.94905C273.354 6.31825 271.801 6.71505 269.874 7.13944C267.992 7.56316 265.56 7.95125 262.579 8.30371C262.754 8.25715 262.907 8.21091 263.038 8.16501C263.213 8.16236 263.411 8.13742 263.63 8.09019C264.155 7.99441 264.747 7.9196 265.405 7.86574C265.843 7.77129 266.172 7.7224 266.391 7.71909C266.566 7.67252 266.72 7.64825 266.851 7.64626C267.027 7.64361 267.224 7.61867 267.443 7.57144C267.224 7.61867 266.983 7.64427 266.72 7.64825C266.5 7.65156 266.281 7.67683 266.062 7.72406C265.754 7.7287 265.513 7.7543 265.338 7.80086L264.614 7.8118C264.131 7.863 263.649 7.89225 263.166 7.89954C262.727 7.95008 262.267 8.00095 261.784 8.05216C260.819 8.15456 259.854 8.23502 258.889 8.29351C257.923 8.352 256.936 8.43278 255.928 8.53585C255.445 8.58706 254.963 8.61631 254.48 8.6236C254.041 8.67414 253.581 8.72501 253.098 8.77621C252.879 8.82344 252.638 8.84904 252.375 8.85302C252.111 8.857 251.87 8.8826 251.651 8.92982C251.431 8.93314 251.19 8.93678 250.926 8.94076C250.707 8.94407 250.488 8.96934 250.269 9.01657C249.347 9.0744 248.448 9.1319 247.57 9.18907C246.736 9.24558 245.903 9.30208 245.069 9.35859C244.455 9.41178 243.774 9.44401 243.028 9.45527C242.326 9.50979 241.558 9.58726 240.725 9.68768C240.286 9.69431 239.847 9.70093 239.408 9.70756C239.013 9.75744 238.575 9.78602 238.092 9.79331C237.653 9.84385 237.192 9.87277 236.709 9.88006C236.27 9.88669 235.809 9.9156 235.327 9.96681C233.396 10.0838 231.465 10.1788 229.533 10.2519C227.646 10.3682 225.869 10.4829 224.202 10.5959C224.421 10.5487 224.464 10.5261 224.333 10.528C224.245 10.5294 224.025 10.5546 223.675 10.6039C223.367 10.6085 223.016 10.6138 222.621 10.6198C222.27 10.669 221.985 10.6952 221.766 10.6986C222.028 10.6507 222.138 10.627 222.094 10.6277C222.05 10.6284 221.94 10.63 221.765 10.6327C221.589 10.6353 221.369 10.6386 221.106 10.6426C220.843 10.6905 220.624 10.7158 220.448 10.7184C220.711 10.6705 220.82 10.6469 220.776 10.6476C220.733 10.6483 220.623 10.6499 220.447 10.6526C220.272 10.6991 220.053 10.7244 219.789 10.7284C219.571 10.7756 219.373 10.8005 219.198 10.8032C219.197 10.7593 219.262 10.7363 219.394 10.7343C219.57 10.7317 219.702 10.7297 219.789 10.7284C219.262 10.7363 218.823 10.743 218.472 10.7483C218.165 10.7968 217.88 10.8231 217.617 10.8271C217.353 10.831 217.09 10.835 216.826 10.839C216.607 10.8423 216.299 10.8469 215.904 10.8529C216.166 10.7172 216.076 10.6087 215.636 10.5275C215.24 10.4896 214.69 10.4539 213.987 10.4206C213.328 10.4306 212.582 10.4418 211.747 10.4544C210.957 10.4664 210.298 10.4543 209.77 10.4184C209.727 10.463 209.793 10.4839 209.969 10.4813C210.188 10.478 210.43 10.4743 210.693 10.4703C211.001 10.4657 211.308 10.4611 211.615 10.4564C211.924 10.4957 212.187 10.5137 212.407 10.5104L210.826 10.5342C210.563 10.5382 210.299 10.5422 210.036 10.5461C209.816 10.5495 209.575 10.5751 209.312 10.6229L206.282 10.6687C205.273 10.7278 204.417 10.7627 203.714 10.7733C203.056 10.8272 202.179 10.9063 201.082 11.0107C200.6 11.0619 200.073 11.0918 199.502 11.1004C198.932 11.153 198.339 11.1839 197.725 11.1931C197.374 11.2423 197.045 11.2693 196.738 11.2739C196.43 11.2786 196.101 11.2835 195.75 11.2888C195.399 11.338 195.048 11.3653 194.697 11.3706C194.389 11.3752 194.06 11.3802 193.709 11.3855C192.304 11.4506 190.877 11.4941 189.428 11.516C188.023 11.5811 186.619 11.6682 185.215 11.7772C185.566 11.728 185.609 11.7054 185.346 11.7094C185.082 11.7133 184.687 11.7193 184.16 11.7273C183.897 11.7312 183.611 11.7356 183.304 11.7402C183.041 11.7881 182.778 11.814 182.514 11.818L181.724 11.8299L181.065 11.8399C181.11 11.8831 181.22 11.9034 181.396 11.9008C181.571 11.8981 181.725 11.8958 181.857 11.8938C182.032 11.8912 182.164 11.8892 182.252 11.8878C182.384 11.8858 182.428 11.9071 182.385 11.9517C182.604 11.9045 182.647 11.8819 182.515 11.8839C182.428 11.8852 182.383 11.8639 182.383 11.82C183.172 11.7641 183.678 11.7565 183.898 11.7971C184.118 11.8377 184.403 11.8334 184.754 11.7842C184.93 11.8255 184.865 11.8484 184.557 11.853C184.294 11.857 183.965 11.862 183.569 11.868C183.219 11.9172 182.868 11.9444 182.516 11.9497C182.209 11.9544 182.1 11.978 182.188 12.0206C181.881 12.0691 181.574 12.0957 181.267 12.1004C180.959 12.105 180.652 12.1096 180.345 12.1143L178.632 12.1401L175.207 12.1918C174.066 12.253 172.968 12.2915 171.914 12.3074C170.904 12.3226 169.894 12.3379 168.884 12.3531C169.762 12.2959 170.705 12.2378 171.715 12.1786C172.725 12.1634 173.713 12.1485 174.679 12.1339C175.689 12.1187 176.655 12.0821 177.576 12.0243C178.542 12.0097 179.421 11.9965 180.211 11.9845C180.474 11.9805 180.672 11.9556 180.803 11.9097C180.935 11.9077 180.803 11.9317 180.409 11.9815C177.818 12.0206 175.534 12.0551 173.558 12.0849C171.626 12.158 169.914 12.2278 168.422 12.2942L167.632 12.3061C167.456 12.3088 167.28 12.2895 167.104 12.2482C166.972 12.2502 166.796 12.2529 166.577 12.2562L164.205 12.292C163.371 12.3045 162.581 12.3165 161.834 12.3277C161.132 12.3823 160.583 12.4125 160.188 12.4185C160.188 12.4185 160.254 12.4175 160.386 12.4155C160.518 12.4135 160.649 12.4115 160.781 12.4095C160.957 12.4069 161.088 12.4049 161.176 12.4036C161.308 12.4016 161.33 12.3793 161.241 12.3367L165.852 12.2671C166.73 12.2538 167.542 12.2196 168.288 12.1645C169.079 12.1525 169.781 12.12 170.395 12.0668C170.22 12.0694 170.044 12.0721 169.868 12.0747C169.693 12.1213 169.518 12.1459 169.342 12.1485L167.366 12.1784L159.527 12.2967L155.575 12.3563C155.223 12.3177 154.894 12.3007 154.586 12.3053C154.279 12.31 153.949 12.315 153.598 12.3203L151.622 12.3501C150.348 12.3254 149.052 12.323 147.735 12.3429C146.417 12.3627 145.099 12.3607 143.781 12.3366C143.167 12.3459 142.53 12.3555 141.871 12.3655C141.212 12.3754 140.553 12.3634 139.894 12.3294L137.984 12.3582C137.632 12.3635 137.303 12.3466 136.995 12.3073C136.687 12.3119 136.358 12.3169 136.007 12.3222C134.732 12.2975 133.458 12.2728 132.184 12.2481C130.911 12.2673 129.637 12.2646 128.363 12.2399C128.011 12.2452 127.682 12.2502 127.375 12.2548C127.067 12.2594 126.759 12.2421 126.451 12.2029C126.1 12.2082 125.771 12.2131 125.463 12.2178C125.2 12.2217 124.892 12.2044 124.54 12.1658C123.925 12.1751 123.288 12.1627 122.629 12.1288C122.014 12.138 121.399 12.1254 120.783 12.0907C119.509 12.066 118.257 12.041 117.027 12.0156C115.797 11.9903 114.566 11.9649 113.336 11.9396C113.028 11.9003 112.72 11.883 112.413 11.8876C112.149 11.8916 111.864 11.8959 111.557 11.9005C111.249 11.8613 110.941 11.844 110.633 11.8486C110.326 11.8532 110.018 11.8359 109.71 11.7966C109.095 11.762 108.502 11.749 107.931 11.7576C107.36 11.7662 106.767 11.7532 106.151 11.7186C105.316 11.6873 104.481 11.6559 103.646 11.6246C102.812 11.6372 101.977 11.6278 101.142 11.5965C100.702 11.5592 100.285 11.5436 99.8895 11.5495C99.4942 11.5555 99.0767 11.5398 98.6369 11.5025L97.3854 11.5214C97.1651 11.4808 96.9452 11.4622 96.7257 11.4655C96.55 11.4682 96.3524 11.4711 96.1328 11.4744C94.4628 11.4118 92.8147 11.3488 91.1885 11.2855C89.5631 11.2661 87.9153 11.2251 86.2452 11.1625C85.8494 11.1245 85.4535 11.0866 85.0576 11.0486C84.6624 11.0546 84.2452 11.0609 83.806 11.0675C83.4101 11.0296 82.9923 10.9919 82.5525 10.9546C82.1573 10.9606 81.762 10.9666 81.3668 10.9725C80.5311 10.8973 79.6958 10.844 78.8607 10.8127C78.0703 10.8246 77.2792 10.7926 76.4874 10.7167C75.6524 10.6854 74.8393 10.6538 74.0482 10.6218C73.2571 10.5898 72.444 10.5581 71.609 10.5268L69.2346 10.365C68.8394 10.371 68.4219 10.3553 67.9821 10.318C67.5869 10.324 67.1913 10.308 66.7954 10.27C65.2132 10.2061 63.6307 10.1201 62.0478 10.0123C60.4649 9.90438 58.8823 9.81845 57.3001 9.75448C57.0805 9.75779 56.8826 9.73882 56.7063 9.69755C56.5306 9.7002 56.333 9.70319 56.1134 9.7065L55.8499 9.71048L55.7841 9.71147L55.7172 9.64659L55.3878 9.65156L55.1902 9.65455L54.5974 9.66349L52.226 9.69928C51.4788 9.66663 50.71 9.65627 49.9196 9.6682C49.173 9.67947 48.4042 9.66911 47.6131 9.63712C44.5817 9.59502 41.5936 9.50835 38.6487 9.37709C35.7045 9.28975 32.7815 9.15817 29.8799 8.98234C28.7368 8.91174 27.6153 8.81885 26.5155 8.70368C25.4602 8.63176 24.5577 8.49164 23.8078 8.28334C25.609 8.30008 27.5432 8.40267 29.6104 8.59109C30.6218 8.66367 31.6108 8.71463 32.5776 8.74397C33.589 8.81655 34.6 8.86718 35.6107 8.89585C38.3799 9.02976 41.1265 9.12008 43.8505 9.16682C45.1692 9.23476 46.4873 9.2588 47.8047 9.23892C49.1667 9.26229 50.5507 9.28532 51.9566 9.30803C50.6818 9.23942 49.3853 9.1931 48.0672 9.16907C46.7491 9.14504 45.3213 9.12266 43.7836 9.10194C43.9586 9.05538 44.2437 9.02911 44.639 9.02315C45.0348 9.0611 45.4304 9.07709 45.8256 9.07113C46.2215 9.10907 46.5732 9.12573 46.8806 9.12109C47.1879 9.11645 47.3636 9.1138 47.4075 9.11314C45.1227 9.05977 42.7936 8.98511 40.4202 8.88916C38.0476 8.83711 35.6742 8.74116 33.3002 8.60129C30.9701 8.46076 28.7056 8.29728 26.5066 8.11084C24.3076 7.92441 22.2612 7.66978 20.3676 7.34697C20.0602 7.35161 20.0606 7.37357 20.3686 7.41284C20.6767 7.45212 20.875 7.49305 20.9635 7.53564C20.7446 7.58286 20.5247 7.56422 20.3038 7.47971C20.0835 7.43911 19.8194 7.39917 19.5113 7.35989C19.9964 7.48434 20.4372 7.5875 20.8337 7.66937C21.2309 7.79514 21.4528 7.94553 21.4994 8.12052C20.8833 8.04197 20.4428 7.96077 20.178 7.87692C19.9578 7.83632 19.6716 7.79671 19.3197 7.7581C19.0562 7.76208 19.1008 7.80533 19.4534 7.88785C19.5858 7.92978 19.7179 7.94975 19.8496 7.94776C19.982 7.98969 20.0705 8.03227 20.1151 8.07553C19.8949 8.03493 19.6746 7.99433 19.4544 7.95372C19.2787 7.95638 19.2125 7.93541 19.2558 7.89084C18.9038 7.85222 18.7721 7.85421 18.8606 7.8968C18.9497 7.9833 19.0166 8.04818 19.0612 8.09143C18.8409 8.05083 18.7085 8.00891 18.6639 7.96565C18.62 7.96632 18.4883 7.9683 18.2687 7.97162C18.3579 8.05812 18.5345 8.12134 18.7987 8.16128C19.0628 8.20122 19.327 8.24115 19.5911 8.28109C20.2086 8.44747 20.4957 8.55295 20.4524 8.59752C21.861 8.79589 23.203 8.95133 24.4785 9.06385C25.7979 9.17571 27.095 9.26595 28.3698 9.33456C28.2381 9.33654 28.1942 9.33721 28.2381 9.33654C28.282 9.33588 28.3256 9.31326 28.3688 9.26868C28.8532 9.34922 29.4471 9.40615 30.1503 9.43946C30.8543 9.51668 31.5802 9.59357 32.3281 9.67014C33.0753 9.70278 33.8005 9.73576 34.5038 9.76907C35.2071 9.80238 35.8009 9.85931 36.2853 9.93985C36.242 9.98442 36.0447 10.0094 35.6934 10.0147C35.386 10.0193 35.0783 10.002 34.7702 9.96271C35.8268 10.1225 36.9929 10.2586 38.2684 10.3711C39.5878 10.483 40.8629 10.5735 42.0938 10.6428C42.3573 10.6388 42.4229 10.6159 42.2905 10.574C42.1587 10.576 42.2898 10.5301 42.6837 10.4363C42.8594 10.4336 42.9252 10.4326 42.8813 10.4333C42.8813 10.4333 42.8374 10.4339 42.7496 10.4353C42.7063 10.4798 42.6627 10.5025 42.6188 10.5031C42.6195 10.547 42.7296 10.5673 42.9492 10.564C43.3883 10.5574 43.5856 10.5325 43.541 10.4892C44.5524 10.5618 45.6948 10.5885 46.9683 10.5693C48.2418 10.55 49.5815 10.5518 50.9874 10.5745L53.0953 10.5427C53.3155 10.5833 53.6672 10.5999 54.1502 10.5926L55.1383 10.5777L55.4018 10.5738L55.7311 10.5688L55.797 10.5678L55.9297 10.6317L56.4567 10.6237C56.633 10.665 56.9407 10.6823 57.3799 10.6757C57.6879 10.715 57.9737 10.7326 58.2372 10.7286C58.5452 10.7679 58.8314 10.8075 59.0955 10.8474L65.2275 11.1502C66.2827 11.2221 67.3157 11.2724 68.3264 11.3011C69.3816 11.373 70.4146 11.4233 71.4253 11.452C72.4805 11.5239 73.5355 11.5739 74.5901 11.6019C75.6453 11.6738 76.6786 11.7461 77.69 11.8187L80.8548 11.9686C81.1182 11.9646 81.3817 11.9606 81.6452 11.9566C81.9094 11.9966 82.1732 12.0145 82.4367 12.0106C82.7008 12.0505 82.9646 12.0685 83.2281 12.0645C83.4916 12.0605 83.7551 12.0566 84.0186 12.0526C86.1723 12.1519 88.3261 12.2511 90.4799 12.3504C92.6776 12.449 94.8969 12.5253 97.1378 12.5793C99.3787 12.6334 101.642 12.6871 103.926 12.7404C106.211 12.7938 108.54 12.8465 110.913 12.8985C108.936 12.8845 106.915 12.871 104.851 12.8583C102.787 12.8894 100.678 12.8773 98.5251 12.822L96.9442 12.8458C96.6361 12.8065 96.3503 12.7889 96.0869 12.7929C95.8234 12.7968 95.5599 12.8008 95.2964 12.8048C94.7688 12.7688 94.2195 12.7552 93.6486 12.7638C93.1217 12.7717 92.5724 12.7581 92.0009 12.7228C90.9024 12.6954 89.8038 12.6681 88.7053 12.6407C87.6075 12.6573 86.5093 12.6519 85.4108 12.6245C84.2677 12.5539 83.1469 12.505 82.0484 12.4776C80.9505 12.4942 79.8301 12.4672 78.687 12.3966C77.5446 12.3699 76.4241 12.3429 75.3256 12.3155C74.2271 12.2882 73.1066 12.2612 71.9642 12.2345C69.7232 12.1805 67.5039 12.1042 65.3063 12.0055C63.1531 11.9502 61 11.8948 58.8469 11.8395C58.4949 11.8009 58.1433 11.7842 57.792 11.7895C57.4846 11.7942 57.1549 11.7772 56.8029 11.7386L55.749 11.7545L55.748 11.6886L55.6821 11.6896L55.4187 11.6936L55.2869 11.6956L55.0234 11.6995L54.4975 11.7734L50.4793 11.834C49.1619 11.8539 47.8665 11.8734 46.5929 11.8926C45.3194 11.9119 44.0456 11.9091 42.7714 11.8844C40.2677 11.8783 37.8731 11.8266 35.5875 11.7293C33.302 11.632 31.1695 11.4885 29.1901 11.2988C28.1788 11.2262 27.1894 11.1533 26.2219 11.08C25.2545 11.0068 24.331 10.9328 23.4514 10.8583C22.5272 10.7404 21.625 10.6223 20.7447 10.5038C19.8651 10.4292 18.9848 10.3107 18.1039 10.1483C16.3873 9.9107 14.7575 9.60587 13.2146 9.23384C12.818 9.15197 12.4211 9.04815 12.0239 8.92238C11.6713 8.83985 11.3186 8.75732 10.966 8.6748C10.7451 8.59028 10.5465 8.5274 10.3702 8.48613C10.2378 8.44421 10.0831 8.38066 9.9061 8.29548C9.86218 8.29614 9.81794 8.27485 9.77336 8.2316C9.77336 8.2316 9.7514 8.23193 9.70749 8.23259L9.44301 8.1707L9.04481 7.97905C8.95565 7.89254 8.84487 7.82833 8.71247 7.7864C8.58006 7.74448 8.46929 7.68026 8.38013 7.59376C8.33556 7.55051 8.29131 7.52922 8.2474 7.52988L8.2464 7.46401L8.18053 7.465C8.09403 7.55416 8.05078 7.59873 8.05078 7.59873L8.11665 7.59774L8.11565 7.53187L8.11665 7.59774L8.18252 7.59674L8.18351 7.66262L8.24938 7.66162C8.25005 7.70554 8.27234 7.72716 8.31625 7.7265L8.31724 7.79237C8.22942 7.79369 8.14092 7.75111 8.05177 7.6646L8.05277 7.73047L7.9869 7.73147L7.98789 7.79734L8.05376 7.79635L8.05475 7.86222C8.14391 7.94872 8.27697 8.03456 8.45396 8.11974C8.49853 8.16299 8.54278 8.18428 8.58669 8.18362L8.72042 8.31337L8.78629 8.31238L8.91903 8.37626C8.91903 8.37626 8.96327 8.39755 9.05176 8.44014C9.49355 8.60917 10.0235 8.79883 10.6416 9.00912C11.3475 9.21809 11.987 9.38414 12.5598 9.50726C13.2212 9.67298 13.9042 9.8164 14.6088 9.93754C15.358 10.1019 16.1068 10.2444 16.8553 10.3648C17.6039 10.4853 18.3521 10.5838 19.0999 10.6604C19.8485 10.7809 20.5966 10.8794 21.3445 10.956C21.2573 11.0012 21.0381 11.0265 20.6868 11.0318C21.5664 11.1063 22.4899 11.1802 23.4573 11.2535C24.4248 11.3267 25.4142 11.3997 26.4255 11.4722C28.4934 11.7046 30.6263 11.8701 32.8239 11.9687L28.6082 12.0323C27.861 11.9996 27.0918 11.9673 26.3007 11.9353C25.5103 11.9473 24.6753 11.9159 23.7956 11.8414C23.7956 11.8414 23.8396 11.8407 23.9274 11.8394C24.0152 11.8381 24.125 11.8364 24.2567 11.8344C24.3885 11.8324 24.4983 11.8308 24.5861 11.8294C24.6739 11.8281 24.6956 11.8058 24.651 11.7626C24.2997 11.7679 23.9041 11.7519 23.4643 11.7146C23.0252 11.7212 22.5857 11.7059 22.1459 11.6686C21.2663 11.594 20.562 11.4948 20.0331 11.3711C20.2074 11.2806 20.2942 11.2134 20.2936 11.1695C20.2936 11.1695 20.2277 11.1705 20.0959 11.1725C20.0088 11.2177 19.8997 11.2633 19.7686 11.3092C19.6375 11.3551 19.5726 11.4219 19.5739 11.5098C19.2672 11.5583 18.9162 11.5856 18.521 11.5915C18.1697 11.5968 18.0167 11.6431 18.0619 11.7302C17.666 11.6923 17.2917 11.632 16.9391 11.5495C16.6311 11.5102 16.2568 11.45 15.8163 11.3688C15.7298 11.458 15.8183 11.5006 16.0818 11.4966C16.3899 11.5358 16.6982 11.5971 17.007 11.6803C16.7435 11.6842 16.656 11.7075 16.7445 11.7501C16.8336 11.8366 16.7688 11.9035 16.5499 11.9507C16.7707 12.0352 16.9244 12.0329 17.0109 11.9438C17.0981 11.8985 17.2295 11.8746 17.4052 11.8719C17.6693 11.9119 17.6916 11.9335 17.472 11.9368C17.2964 11.9394 17.2751 11.9837 17.4082 12.0695C17.7601 12.1081 17.9358 12.1055 17.9351 12.0616C17.9784 12.017 18.0875 11.9714 18.2625 11.9249C18.4834 12.0094 18.6161 12.0733 18.6607 12.1165C18.7053 12.1598 18.5739 12.1837 18.2665 12.1884C18.7508 12.2689 19.2788 12.3268 19.8504 12.3621C20.4226 12.4413 20.9728 12.5209 21.5011 12.6007C21.9855 12.6813 22.4256 12.7405 22.8215 12.7785C23.2174 12.8164 23.4596 12.8567 23.5481 12.8993L24.9314 12.8784L26.7757 12.8506C26.9521 12.8918 26.9527 12.9357 26.7777 12.9823C26.6027 13.0289 26.6693 13.0718 26.9773 13.1111C28.2522 13.1797 29.5696 13.1598 30.9296 13.0514C32.2903 12.987 33.6952 12.9438 35.1443 12.9219C35.1443 12.9219 35.2099 12.899 35.341 12.8531C35.4727 12.8511 35.6044 12.8491 35.7362 12.8471C35.8679 12.8451 35.9557 12.8438 35.9997 12.8431C36.0436 12.8425 35.9774 12.8215 35.8011 12.7802C37.2948 12.8016 38.9855 12.7761 40.8731 12.7037C42.7608 12.6313 44.7588 12.6011 46.8674 12.6132C45.9465 12.715 44.8932 12.7748 43.7076 12.7927C42.5658 12.8099 41.6662 12.8674 41.0088 12.9652C41.1845 12.9625 41.0747 12.9642 40.6795 12.9702C40.3288 13.0194 39.8687 13.0922 39.2992 13.1887C38.729 13.2412 38.1807 13.2934 37.6544 13.3453C37.1287 13.441 36.8007 13.5338 36.6703 13.6236C37.8566 13.6497 39.1521 13.6301 40.5567 13.565C41.9619 13.5438 43.4108 13.5 44.9032 13.4335C46.3956 13.3671 47.866 13.301 49.3145 13.2352C50.8069 13.1687 52.2345 13.1691 53.5971 13.2364C53.3776 13.2397 53.136 13.2434 52.8726 13.2474C52.6536 13.2946 52.3905 13.3205 52.0831 13.3252C52.0398 13.3697 52.1719 13.3897 52.4793 13.3851C50.9437 13.4961 49.3418 13.5862 47.6737 13.6552C46.0496 13.7237 44.4693 13.7915 42.933 13.8586L43.5917 13.8486C43.5904 13.7608 43.458 13.7189 43.1945 13.7228C42.9756 13.7701 42.8884 13.8153 42.933 13.8586C41.7906 13.8319 40.714 13.8042 39.7033 13.7755C38.7366 13.7462 37.7698 13.7169 36.803 13.6875C35.7917 13.6149 34.8026 13.564 33.8359 13.5347C32.8691 13.5053 31.8581 13.4547 30.8028 13.3828C30.4508 13.3442 30.2532 13.3471 30.21 13.3917C30.1667 13.4363 30.0134 13.4606 29.7499 13.4645C29.3094 13.3833 28.7595 13.3258 28.1001 13.2918C27.4853 13.3011 26.826 13.2671 26.122 13.1899C25.4187 13.1566 24.7374 13.1229 24.078 13.0889C23.4626 13.0543 22.913 13.0187 22.4293 12.982C22.8704 13.1072 23.4649 13.208 24.2127 13.2846C24.9606 13.3611 25.7304 13.4374 26.5222 13.5133C27.314 13.5891 28.0396 13.6441 28.6989 13.6781C29.4029 13.7553 29.8876 13.8578 30.1531 13.9855C29.8017 13.9908 29.3403 13.9758 28.7688 13.9405C28.1979 13.9492 27.6483 13.9135 27.12 13.8337C27.2511 13.7878 27.5362 13.7615 27.9753 13.7549C28.4151 13.7922 28.8549 13.8294 29.2947 13.8667C28.8104 13.7862 28.0409 13.7319 26.9863 13.7039C25.9763 13.7191 24.8338 13.6925 23.559 13.6239C22.899 13.546 22.2393 13.49 21.5799 13.4561C20.9212 13.466 20.2838 13.4317 19.6677 13.3532C19.0076 13.2753 18.3695 13.197 17.7534 13.1185C17.138 13.0839 16.5661 13.0266 16.0378 12.9467C15.8176 12.9061 15.5534 12.8662 15.2454 12.8269C14.9819 12.8309 14.6958 12.7913 14.387 12.7081C14.0783 12.6249 13.7699 12.5637 13.4619 12.5244C13.1977 12.4845 12.9552 12.4222 12.7343 12.3377C12.5141 12.2971 12.3378 12.2559 12.2054 12.2139C12.1169 12.1713 12.1165 12.1494 12.2044 12.1481C12.2483 12.1474 12.3803 12.1674 12.6006 12.208C12.8647 12.2479 13.2609 12.3078 13.7892 12.3877C13.3049 12.3072 12.7982 12.205 12.2692 12.0812C11.7409 12.0013 11.2123 11.8995 10.6834 11.7757C9.62678 11.616 8.63507 11.3893 7.70824 11.0959C7.75281 11.1391 7.88555 11.203 8.10645 11.2875C8.1956 11.374 8.37258 11.4592 8.63739 11.543C8.85828 11.6275 9.05689 11.6904 9.23321 11.7317C9.45344 11.7723 9.60814 11.8359 9.69729 11.9224C9.69729 11.9224 9.67566 11.9446 9.63241 11.9892L9.23719 11.9952C9.45808 12.0797 9.65669 12.1426 9.83301 12.1838C10.01 12.269 10.2089 12.3539 10.4298 12.4384C10.6068 12.5236 10.7835 12.5868 10.9598 12.628C11.1368 12.7132 11.3357 12.7981 11.5566 12.8826C11.6883 12.8806 11.7542 12.8796 11.7542 12.8796C11.7542 12.8796 11.7319 12.858 11.6873 12.8147C11.6434 12.8154 11.5992 12.7941 11.5546 12.7508C11.51 12.7076 11.5316 12.6853 11.6195 12.684C11.9721 12.7665 12.4565 12.847 13.0726 12.9256C13.205 12.9675 13.2712 12.9885 13.2712 12.9885C13.2712 12.9885 13.2273 12.9891 13.1395 12.9905C13.0956 12.9911 13.0516 12.9918 13.0077 12.9925C12.9645 13.037 12.9648 13.059 13.0087 13.0583C13.3168 13.0976 13.7569 13.1568 14.3291 13.2361C14.9452 13.3146 15.3415 13.3745 15.5178 13.4158C15.1665 13.4211 14.8587 13.4038 14.5946 13.3638C14.3305 13.3239 14.0224 13.2846 13.6704 13.246C13.3643 13.3385 12.837 13.3245 12.0885 13.204C11.3407 13.1274 10.5259 12.986 9.64434 12.7797C8.71883 12.574 7.85854 12.3235 7.06345 12.028C6.84255 11.9435 6.64361 11.8586 6.46663 11.7735C6.33356 11.6876 6.2005 11.6018 6.06743 11.5159C5.89045 11.4308 5.73542 11.3452 5.60236 11.2594C5.51387 11.2168 5.42505 11.1523 5.33589 11.0658L5.46962 11.1955L5.60335 11.3253C5.64793 11.3685 5.67022 11.3902 5.67022 11.3902C5.67088 11.4341 5.6935 11.4777 5.73808 11.5209C5.82723 11.6074 5.87247 11.6946 5.87379 11.7824L6.07439 11.977C6.11963 12.0642 6.2976 12.2152 6.60831 12.4302C6.74138 12.516 6.89641 12.6015 7.07339 12.6867C7.29428 12.7712 7.58105 12.8547 7.93369 12.9373C7.71345 12.8967 7.51518 12.8557 7.33886 12.8145C7.16254 12.7732 6.96393 12.7103 6.74304 12.6258C6.52281 12.5852 6.32453 12.5443 6.14821 12.503C6.01581 12.4611 5.83916 12.3979 5.61826 12.3133C5.44128 12.2282 5.28659 12.1646 5.15418 12.1227C5.02244 12.1247 4.91233 12.1044 4.82384 12.0618C4.60294 11.9773 4.49349 12.0009 4.49548 12.1326C4.67511 12.3935 4.91962 12.5874 5.229 12.7145C5.22966 12.7584 5.25195 12.7801 5.29587 12.7794C5.33978 12.7787 5.36174 12.7784 5.36174 12.7784C5.3624 12.8223 5.38469 12.844 5.4286 12.8433C5.51776 12.9298 5.56233 12.973 5.56233 12.973C5.69407 12.9711 5.80452 13.0133 5.89368 13.0998C6.38004 13.3121 6.7553 13.4382 7.01945 13.4781C7.32817 13.5613 7.61427 13.6009 7.87775 13.597C8.14124 13.593 8.44864 13.5883 8.79995 13.583C9.33023 13.7947 9.83789 13.9627 10.3229 14.0871C10.8086 14.2555 11.294 14.4019 11.779 14.5264C12.3087 14.6941 12.8596 14.8175 13.4318 14.8967C14.0486 15.0192 14.7532 15.1404 15.5456 15.2602C15.1491 15.1783 14.7525 15.0964 14.356 15.0146C14.004 14.976 13.6736 14.9151 13.3649 14.8319C12.6151 14.6236 12.2172 14.4539 12.1713 14.3228C12.5678 14.4047 12.9205 14.4872 13.2292 14.5704C13.5379 14.6536 13.8466 14.7368 14.1554 14.8199C14.4641 14.9031 14.7725 14.9644 15.0805 15.0036C15.3886 15.0429 15.7629 15.1032 16.2033 15.1844C16.2905 15.1391 16.2459 15.0959 16.0696 15.0546C15.9379 15.0566 15.8497 15.036 15.8051 14.9927C16.1571 15.0313 16.6628 15.0676 17.3221 15.1016C18.0261 15.1788 18.774 15.2554 19.5657 15.3313C20.3136 15.4078 21.0611 15.4624 21.8083 15.4951C22.5562 15.5716 23.1497 15.6066 23.5888 15.6C23.9415 15.6825 24.162 15.7451 24.2505 15.7877C24.339 15.8302 24.5376 15.8931 24.8463 15.9763C26.0746 15.8699 27.1295 15.9199 28.0111 16.1262C28.8934 16.3764 29.7963 16.5385 30.7198 16.6124C30.9833 16.6085 31.0269 16.5858 30.8505 16.5446C30.6742 16.5033 30.4982 16.484 30.3226 16.4867C30.6732 16.4374 30.959 16.4551 31.1799 16.5396C31.4008 16.6241 31.6872 16.6857 32.0392 16.7243C31.9081 16.7702 31.776 16.7502 31.643 16.6644C31.5106 16.6225 31.2907 16.6038 30.9833 16.6085C31.2481 16.6923 31.6443 16.7522 32.1719 16.7882C32.7002 16.868 33.0968 16.9499 33.3616 17.0338C32.3948 17.0044 31.5601 16.9951 30.8575 17.0057C30.1994 17.0595 29.3648 17.0502 28.3534 16.9776C28.7493 17.0155 29.2107 17.0305 29.7377 17.0226C30.2653 17.0585 30.771 17.0948 31.2547 17.1314L33.8237 17.0927C34.3074 17.1293 34.7252 17.1669 35.0772 17.2055C35.4731 17.2435 35.8474 17.3037 36.2 17.3862C35.673 17.3942 34.9258 17.3615 33.9584 17.2883C32.9916 17.259 32.1346 17.228 31.3874 17.1953C31.1679 17.1986 31.102 17.1996 31.1898 17.1983C31.2783 17.2409 31.3445 17.2619 31.3884 17.2612C31.081 17.2658 30.7514 17.2488 30.3994 17.2102C30.0481 17.2155 29.6528 17.2215 29.2137 17.2281C29.39 17.2694 29.6319 17.2877 29.9393 17.2831C30.2473 17.3223 30.577 17.3393 30.9283 17.334C31.2803 17.3726 31.61 17.3896 31.9174 17.385C32.2694 17.4236 32.5335 17.4635 32.7098 17.5048C32.5342 17.5074 32.2926 17.5111 31.9852 17.5157C31.6779 17.5204 31.3701 17.5031 31.0621 17.4638C30.7986 17.4678 30.5567 17.4494 30.3365 17.4088C30.1608 17.4115 30.0727 17.3909 30.072 17.3469C29.8531 17.3942 29.5238 17.3991 29.0839 17.3619C28.6887 17.3678 28.2928 17.3299 27.8963 17.248C28.0274 17.2021 28.3125 17.1758 28.7516 17.1692C28.5314 17.1286 28.1355 17.0907 27.5639 17.0554C27.037 17.0633 26.4877 17.0496 25.9162 17.0144C25.3446 16.9791 24.817 16.9431 24.3333 16.9065C23.8942 16.9131 23.63 16.8732 23.5409 16.7867C23.6719 16.7408 23.9135 16.7371 24.2654 16.7757C24.6181 16.8582 24.9481 16.8972 25.2555 16.8925C24.8589 16.8107 24.4627 16.7508 24.0668 16.7128C23.6709 16.6749 23.2528 16.6153 22.8123 16.5341C22.3279 16.4536 21.8439 16.395 21.3602 16.3584C20.9204 16.3211 20.4143 16.2628 19.8421 16.1836C19.755 16.2289 19.7556 16.2728 19.8441 16.3154C19.9333 16.4019 20.066 16.4657 20.2423 16.507C20.4193 16.5922 20.596 16.6554 20.7723 16.6967C20.9925 16.7373 21.1688 16.7785 21.3012 16.8205C21.1695 16.8224 21.0155 16.8028 20.8391 16.7615C20.7074 16.7635 20.5757 16.7655 20.4439 16.7675C20.4446 16.8114 20.5986 16.8311 20.906 16.8264C21.2573 16.8211 21.5431 16.8388 21.7633 16.8794C21.9836 16.92 22.1156 16.9399 22.1596 16.9393C22.2041 16.9825 22.2926 17.0251 22.425 17.067C22.1615 17.071 21.9856 17.0517 21.8971 17.0091C21.8092 17.0104 21.6116 17.0134 21.3042 17.0181C21.3927 17.0607 21.5467 17.0803 21.7663 17.077C21.9859 17.0737 22.1838 17.0926 22.3601 17.1339C21.2171 17.0633 20.1831 16.9471 19.2582 16.7854C18.378 16.6669 17.5213 16.6579 16.6883 16.7583C15.8087 16.6837 14.9943 16.5642 14.2451 16.3999C13.4966 16.2794 12.7697 16.1366 12.0644 15.9716C11.4037 15.8498 10.7646 15.7057 10.1472 15.5393C9.57366 15.3722 8.97784 15.1836 8.35973 14.9733C8.35973 14.9733 8.31548 14.952 8.22699 14.9094C8.31482 14.9081 8.35906 14.9294 8.35973 14.9733C8.58062 15.0578 8.80085 15.0984 9.02042 15.0951C9.24066 15.1357 9.46122 15.1983 9.68211 15.2828C9.94692 15.3666 10.1891 15.4069 10.4087 15.4036C10.6728 15.4435 10.8931 15.4841 11.0694 15.5254C11.1572 15.524 11.0028 15.4825 10.6063 15.4006C10.2537 15.3181 9.83482 15.2146 9.34978 15.0901C9.12888 15.0056 8.88636 14.9434 8.62222 14.9034C8.35807 14.8635 8.11555 14.8013 7.89465 14.7168C7.67376 14.6323 7.47515 14.5694 7.29883 14.5281C7.16643 14.4862 7.05631 14.4659 6.96849 14.4672C6.92457 14.4679 6.85837 14.4469 6.76988 14.4043C6.7253 14.3611 6.65877 14.3181 6.57028 14.2756C6.48112 14.189 6.39263 14.1465 6.30481 14.1478C6.21631 14.1052 6.14978 14.0623 6.10521 14.019C6.10521 14.019 6.06096 13.9977 5.97247 13.9551C5.75157 13.8706 5.61884 13.8067 5.57426 13.7635C5.52968 13.7202 5.66209 13.7622 5.97148 13.8893C5.83841 13.8034 5.6611 13.6963 5.43954 13.5679C5.26256 13.4827 5.06362 13.3978 4.84272 13.3133C4.66574 13.2282 4.44418 13.0997 4.17805 12.928L3.97745 12.7334C3.93354 12.7341 3.86701 12.6912 3.77785 12.6047L4.04531 12.8642L4.11218 12.929C4.11218 12.929 4.06793 12.9077 3.97944 12.8652C3.93553 12.8658 3.89128 12.8445 3.84671 12.8013C3.80213 12.758 3.75788 12.7367 3.71397 12.7374C3.71397 12.7374 3.69168 12.7158 3.64711 12.6725C3.33639 12.4576 3.0686 12.1761 2.84373 11.8281C2.84241 11.7403 2.81979 11.6967 2.77587 11.6974C2.77521 11.6535 2.75259 11.6099 2.70801 11.5666C2.70801 11.5666 2.70768 11.5447 2.70702 11.5008C2.70636 11.4568 2.68407 11.4352 2.64015 11.4359C2.64015 11.4359 2.63982 11.4139 2.63916 11.37C2.63784 11.2822 2.61488 11.2166 2.57031 11.1734C2.56832 11.0417 2.54471 10.9322 2.49947 10.845L2.4945 10.5157C2.49383 10.4718 2.51513 10.4275 2.55838 10.3829L2.55738 10.3171L2.55838 10.3829L2.55937 10.4488C2.5607 10.5366 2.56202 10.6245 2.56335 10.7123C2.60925 10.8434 2.63187 10.887 2.63121 10.843L2.62823 10.6454C2.6269 10.5576 2.64786 10.4914 2.69111 10.4468L2.69012 10.381L2.68913 10.3151C2.6878 10.2273 2.70876 10.1611 2.75201 10.1165C2.83587 9.85167 2.92038 9.63077 3.00556 9.45379C3.21916 9.05525 3.39117 8.81107 3.52159 8.72126L3.45671 8.78812C3.4128 8.78879 3.36922 8.81141 3.32597 8.85598L3.13134 9.05658L2.87183 9.32404C2.784 9.32536 2.73909 9.26015 2.7371 9.12841C2.86487 8.86294 2.99297 8.61943 3.12139 8.39787C3.25049 8.22022 3.37925 8.02062 3.50767 7.79907C3.63676 7.62142 3.76586 7.44378 3.89495 7.26613C4.0247 7.1324 4.17608 6.97639 4.34908 6.79808C4.39167 6.70959 4.45622 6.62077 4.54272 6.53161C4.62922 6.44246 4.71606 6.37526 4.80322 6.33002C4.93231 6.15238 5.08369 5.99636 5.25736 5.86197C5.60337 5.50536 5.972 5.19233 6.36325 4.92288C6.14567 5.05793 5.92808 5.19299 5.7105 5.32804C5.53684 5.46244 5.34154 5.61912 5.12462 5.79809C4.9077 5.97706 4.69045 6.13407 4.47287 6.26912C4.29987 6.44743 4.10524 6.64803 3.88898 6.87091C3.67273 7.09379 3.45614 7.29472 3.23922 7.47369C3.06688 7.69591 2.87291 7.94042 2.65732 8.20721C2.57214 8.3842 2.46467 8.53955 2.33492 8.67328C2.24908 8.80635 2.1639 8.98333 2.07939 9.20422C1.99487 9.42512 1.93232 9.64568 1.89172 9.86592C1.85112 10.0861 1.83247 10.306 1.83579 10.5256C1.79386 10.658 1.77455 10.834 1.77787 11.0536L1.78284 11.3829C1.78416 11.4708 1.78516 11.5366 1.78582 11.5805C1.8304 11.6238 1.85335 11.6893 1.85467 11.7772C1.856 11.865 1.87895 11.9305 1.92353 11.9738C1.92485 12.0616 1.9478 12.1272 1.99238 12.1704C1.99371 12.2582 2.03961 12.3893 2.13009 12.5636C2.21924 12.6501 2.26415 12.7154 2.26481 12.7593C2.35396 12.8458 2.39854 12.889 2.39854 12.889C2.44378 12.9762 2.48869 13.0414 2.53327 13.0846C2.57784 13.1279 2.62275 13.1931 2.66799 13.2803L2.86858 13.4749C2.95774 13.5614 3.00231 13.6047 3.00231 13.6047C3.0908 13.6472 3.17963 13.7118 3.26878 13.7983C3.35793 13.8848 3.42447 13.9277 3.46838 13.927C3.51296 13.9703 3.53525 13.9919 3.53525 13.9919C3.57916 13.9913 3.6234 14.0126 3.66798 14.0558L3.73385 14.0548L3.80072 14.1197C3.84463 14.119 3.86659 14.1187 3.86659 14.1187C3.91116 14.1619 3.95541 14.1832 3.99932 14.1826C4.0439 14.2258 4.17664 14.2897 4.39753 14.3742C4.70824 14.5892 4.99633 14.7605 5.26181 14.8883C5.52728 15.016 5.79275 15.1438 6.05822 15.2716C6.32303 15.3554 6.56588 15.4396 6.78678 15.5241C7.05225 15.6519 7.29543 15.758 7.51633 15.8425C8.00203 16.0109 8.4874 16.1573 8.97245 16.2818C9.45749 16.4062 10.0084 16.5297 10.6252 16.6521C10.4056 16.6555 10.2962 16.6791 10.2968 16.723C10.3414 16.7662 10.386 16.8095 10.4306 16.8527C10.519 16.8953 10.5636 16.9386 10.5643 16.9825C10.6089 17.0257 10.5214 17.049 10.3018 17.0523C10.0376 17.0124 9.94916 16.9698 10.0363 16.9246C10.1681 16.9226 10.1235 16.8793 9.90259 16.7948C9.68236 16.7542 9.50637 16.7349 9.37463 16.7369C9.24289 16.7389 9.1331 16.7405 9.04528 16.7419C8.9142 16.7878 9.02531 16.8739 9.37861 17.0004C7.96872 16.7142 7.21854 16.4839 7.12806 16.3096C6.28972 16.0587 5.56116 15.8062 4.94239 15.552C4.3682 15.341 3.85987 15.129 3.41742 14.9161C3.32827 14.8296 3.28369 14.7864 3.28369 14.7864C3.19454 14.6998 3.128 14.6569 3.08409 14.6576L2.88349 14.463C2.83892 14.4197 2.79467 14.3984 2.75076 14.3991C2.75076 14.3991 2.72847 14.3775 2.68389 14.3342L2.4833 14.1396L2.2827 13.9449C2.23813 13.9017 2.19355 13.8584 2.14897 13.8152C2.14831 13.7713 2.12569 13.7277 2.08112 13.6844L2.01425 13.6196L2.01326 13.5537C1.96934 13.5544 1.94705 13.5327 1.94639 13.4888C1.94639 13.4888 1.92443 13.4891 1.88052 13.4898C1.87986 13.4459 1.85724 13.4023 1.81266 13.3591C1.72351 13.2726 1.67893 13.2293 1.67893 13.2293C1.58845 13.055 1.54288 12.9459 1.54222 12.9019C1.45307 12.8154 1.38587 12.7286 1.34063 12.6414C1.33997 12.5975 1.31735 12.5539 1.27277 12.5107L1.27078 12.379C1.22621 12.3357 1.20359 12.2921 1.20292 12.2482C1.20226 12.2043 1.17964 12.1607 1.13506 12.1175C1.13308 11.9857 1.10979 11.8982 1.06522 11.855L1.06224 11.6574L1.05925 11.4597C1.01468 11.4165 0.991394 11.329 0.989406 11.1973C0.988743 11.1533 0.966123 11.1098 0.921547 11.0665C0.921547 11.0665 0.920884 11.0226 0.919559 10.9348L0.916576 10.7371L0.9126 10.4737L0.908624 10.2102C0.951875 10.1656 0.972838 10.0994 0.971512 10.0116L0.96853 9.81396C0.967867 9.77005 0.967205 9.72613 0.966542 9.68222C1.01046 9.68156 1.03208 9.65927 1.03142 9.61536C1.03009 9.52753 1.05106 9.46132 1.09431 9.41675L1.09232 9.28501C1.13491 9.19652 1.15587 9.13031 1.15521 9.0864C1.15521 9.0864 1.1765 9.04215 1.21909 8.95366C1.21843 8.90975 1.23972 8.8655 1.28297 8.82093L1.28099 8.68919C1.32424 8.64461 1.34553 8.60036 1.34487 8.55645C1.34421 8.51254 1.3655 8.46829 1.40875 8.42371L1.6004 8.02551C1.64365 7.98093 1.66494 7.93668 1.66428 7.89277C1.70753 7.84819 1.75078 7.80362 1.79404 7.75904C1.83662 7.67055 1.87921 7.58206 1.9218 7.49357C1.96439 7.40508 2.00698 7.31659 2.04957 7.2281C2.13474 7.05112 2.19896 6.94034 2.24221 6.89576C2.32739 6.71878 2.36964 6.60833 2.36898 6.56442L2.49873 6.43069C2.49741 6.34286 2.5187 6.29861 2.56262 6.29795C2.60521 6.20946 2.62617 6.14326 2.62551 6.09935C2.66942 6.09868 2.71267 6.05411 2.75526 5.96562L2.56063 6.16621C2.51804 6.2547 2.45349 6.34352 2.36699 6.43268C2.27983 6.47792 2.21462 6.52282 2.17137 6.5674C2.17203 6.61131 2.15074 6.65556 2.10749 6.70014C2.06423 6.74471 2.02098 6.78929 1.97773 6.83387C1.97839 6.87778 1.9571 6.92202 1.91385 6.9666C1.52525 7.41171 1.22481 7.87744 1.01253 8.36381C0.969943 8.4523 0.927023 8.51883 0.883772 8.56341C0.840521 8.60799 0.797601 8.67452 0.755012 8.76301C0.757001 8.89475 0.715406 9.04911 0.630229 9.22609C0.545052 9.40308 0.503458 9.55744 0.505446 9.68918C0.421594 9.95399 0.380331 10.1303 0.381657 10.2181C0.38497 10.4377 0.365664 10.6137 0.323738 10.7461C0.325064 10.8339 0.326389 10.9218 0.327715 11.0096C0.372954 11.0967 0.396236 11.1842 0.397562 11.2721C0.400875 11.4916 0.425152 11.645 0.470391 11.7322C0.471717 11.82 0.472711 11.8859 0.473374 11.9298C0.51795 11.973 0.540901 12.0386 0.542227 12.1264C0.586803 12.1697 0.609754 12.2352 0.61108 12.323C0.611742 12.3669 0.612074 12.3889 0.612074 12.3889C0.655988 12.3882 0.678276 12.4099 0.678939 12.4538C0.679602 12.4977 0.702221 12.5413 0.746798 12.5845C0.792037 12.6717 0.814988 12.7372 0.815651 12.7811C0.859565 12.7805 0.836282 12.693 0.745804 12.5186L0.742821 12.321C0.698245 12.2778 0.675625 12.2342 0.674962 12.1903L0.741827 12.2552C0.74249 12.2991 0.788061 12.4082 0.87854 12.5825C0.969018 12.7569 1.03721 12.9096 1.08311 13.0406C1.17226 13.1271 1.21717 13.1924 1.21783 13.2363C1.26241 13.2795 1.30699 13.3228 1.35156 13.366C1.39614 13.4093 1.41843 13.4309 1.41843 13.4309C1.41909 13.4748 1.44171 13.5184 1.48629 13.5616C1.48695 13.6056 1.50957 13.6491 1.55415 13.6924C1.59939 13.7796 1.66658 13.8664 1.75574 13.9529L1.8226 14.0178C1.77869 14.0184 1.71215 13.9755 1.623 13.889C1.62234 13.8451 1.57743 13.7799 1.48828 13.6934C1.48828 13.6934 1.46599 13.6718 1.42141 13.6285C1.60038 13.8454 1.77902 14.0404 1.95733 14.2134C2.13563 14.3864 2.29165 14.5378 2.42538 14.6675C2.87048 15.0561 3.22577 15.3143 3.49124 15.4421C3.84587 15.6563 4.17821 15.849 4.48825 16.02C4.7983 16.191 5.08606 16.3404 5.35153 16.4682C5.66092 16.5953 5.94835 16.7227 6.21382 16.8505C6.47929 16.9782 6.74443 17.0841 7.00924 17.1679C7.27405 17.2518 7.53886 17.3356 7.80367 17.4195C8.06914 17.5472 8.31232 17.6534 8.53322 17.7379C9.46071 18.0753 10.4318 18.3901 11.4465 18.6822C12.5057 19.0176 13.5416 19.2655 14.5543 19.4259C14.1591 19.4319 13.8068 19.3713 13.4974 19.2442C13.1887 19.161 12.7921 19.0792 12.3077 18.9986C13.0576 19.2069 13.9172 19.4136 14.8866 19.6186C15.8561 19.8236 16.8471 20.0063 17.8598 20.1667C18.8285 20.3278 19.7311 20.4679 20.5675 20.587C21.4477 20.7055 22.13 20.805 22.6144 20.8856C22.7475 20.9714 22.9235 20.9907 23.1424 20.9435C23.362 20.9402 23.6258 20.9581 23.9338 20.9974C23.7156 21.0886 23.1886 21.0965 22.3529 21.0213C22.4853 21.0632 22.6177 21.1051 22.7501 21.1471C22.9271 21.2322 22.7295 21.2352 22.1573 21.156C22.466 21.2392 22.8403 21.2994 23.2801 21.3367C23.7645 21.4173 24.2928 21.4971 24.865 21.5763C25.4365 21.6116 26.0081 21.6469 26.5796 21.6822C27.1511 21.7175 27.6791 21.7755 28.1635 21.856C27.9446 21.9032 27.8351 21.9268 27.8351 21.9268C27.8358 21.9707 27.8587 22.0363 27.904 22.1235C28.3438 22.1607 28.8491 22.1751 29.42 22.1665C29.9915 22.2018 30.4533 22.2387 30.8053 22.2773C31.289 22.3139 31.5964 22.3093 31.7275 22.2634C31.9025 22.2168 32.2757 22.2112 32.8473 22.2465C33.4634 22.3251 34.2548 22.379 35.2216 22.4083C36.189 22.4816 37.244 22.5315 38.3864 22.5582C38.3418 22.515 38.1439 22.496 37.7926 22.5013C37.4852 22.5059 37.1555 22.489 36.8035 22.4503C38.3412 22.4711 39.7694 22.5154 41.0881 22.5833C42.4514 22.6945 43.9019 22.7605 45.4396 22.7812C43.2452 22.9022 40.9617 22.9366 38.589 22.8846C36.217 22.8765 33.9105 22.8454 31.6696 22.7914C32.1985 22.9152 32.968 22.9694 33.978 22.9542C35.032 22.9383 36.0423 22.945 37.0091 22.9743L48.8 22.7964C48.7567 22.841 48.6253 22.8649 48.4057 22.8682C48.2301 22.8709 48.0544 22.8735 47.8788 22.8762C48.626 22.9088 49.461 22.9402 50.3838 22.9701C51.3506 22.9995 52.2069 22.9866 52.9528 22.9314C53.1285 22.9287 53.1504 22.9284 53.0187 22.9304C52.9315 22.9756 52.9318 22.9976 53.0197 22.9963C53.2838 23.0362 53.5476 23.0542 53.8111 23.0502C54.0746 23.0462 54.3381 23.0422 54.6016 23.0383L55.392 23.0263L55.5238 23.0244L55.6565 23.0882C55.7004 23.0876 55.6123 23.0669 55.392 23.0263C55.2164 23.029 55.2164 23.029 55.392 23.0263L55.4589 23.0912L55.8541 23.0853C56.3817 23.1212 56.909 23.1352 57.436 23.1273C58.0076 23.1626 58.5575 23.2202 59.0858 23.3C60.1849 23.3713 61.2618 23.4209 62.3164 23.4489C63.4156 23.5202 64.5367 23.5911 65.6798 23.6617L69.0422 23.8086C69.6144 23.8878 70.164 23.9235 70.691 23.9155C71.2625 23.9508 71.8341 23.9861 72.4056 24.0214C73.5487 24.092 74.6695 24.141 75.768 24.1683C76.9104 24.195 78.0532 24.2437 79.1963 24.3143C79.8117 24.3489 80.3829 24.3622 80.9099 24.3543C81.4815 24.3896 82.075 24.4245 82.6904 24.4592C83.3059 24.4938 83.8771 24.5072 84.404 24.4992C84.9756 24.5345 85.5691 24.5695 86.1846 24.6041C87.3276 24.6747 88.492 24.7011 89.6777 24.6832C90.864 24.7092 92.0507 24.7572 93.2377 24.8271L96.7977 24.971C97.4132 25.0057 98.0063 25.0187 98.5772 25.0101C99.1481 25.0014 99.7413 25.0145 100.357 25.0491C101.588 25.1184 102.796 25.144 103.982 25.1262C105.168 25.1522 106.376 25.1779 107.607 25.2032C117.405 25.4067 127.311 25.5208 137.326 25.5453C147.385 25.5692 157.596 25.4591 167.958 25.2148C167.868 25.0844 167.428 25.0252 166.638 25.0371C167.384 25.0258 168.153 25.0142 168.943 25.0023C169.734 24.9904 170.546 24.9562 171.379 24.8997L176.188 24.8271L181.194 24.7516L183.697 24.7138C184.092 24.6639 184.487 24.636 184.882 24.63C185.321 24.6234 185.738 24.6171 186.134 24.6111C186.09 24.6118 185.98 24.6134 185.804 24.6161C185.629 24.6187 185.453 24.6434 185.278 24.6899C186.99 24.5762 188.767 24.4835 190.611 24.4118C192.455 24.384 194.365 24.3332 196.341 24.2594C198.315 24.1418 200.29 24.0241 202.265 23.9065C204.284 23.8321 206.325 23.7354 208.388 23.6164L209.903 23.5936C210.078 23.547 210.341 23.5211 210.692 23.5158L211.417 23.5048C211.943 23.453 212.448 23.4014 212.93 23.3502C213.457 23.3423 213.984 23.3124 214.51 23.2605C215.519 23.2013 216.507 23.1425 217.472 23.084C218.482 23.0249 219.491 22.9437 220.499 22.8407C220.982 22.8334 221.465 22.8041 221.947 22.7529C222.474 22.745 222.979 22.7154 223.462 22.6642C223.68 22.617 223.922 22.5914 224.185 22.5874C224.449 22.5834 224.69 22.5798 224.91 22.5765C225.085 22.5299 225.348 22.504 225.699 22.4987ZM28.4071 20.5346C28.2314 20.5372 27.9676 20.5193 27.6156 20.4807C27.2643 20.486 26.9127 20.4693 26.5607 20.4307C26.2087 20.3921 25.9226 20.3525 25.7024 20.3119C25.4828 20.3152 25.417 20.3162 25.5048 20.3149C25.7683 20.3109 26.0757 20.3062 26.427 20.3009C26.779 20.3395 27.109 20.3785 27.417 20.4178C27.7251 20.457 27.9669 20.4754 28.1426 20.4727C28.3628 20.5133 28.451 20.5339 28.4071 20.5346ZM25.7173 21.2999C25.2336 21.2633 24.8816 21.2247 24.6614 21.1841C24.4857 21.1867 24.3097 21.1674 24.1334 21.1262C24.4854 21.1648 24.8151 21.1818 25.1225 21.1771C25.4299 21.1725 25.6282 21.2134 25.7173 21.2999ZM19.1103 20.0819C18.626 20.0014 18.1855 19.9202 17.7889 19.8383C17.3931 19.8004 17.0627 19.7395 16.7979 19.6556C17.8099 19.7721 18.7125 19.9122 19.5056 20.076C19.9021 20.1578 20.2983 20.2177 20.6942 20.2557C21.134 20.293 21.6181 20.3515 22.1464 20.4314C22.2788 20.4733 22.323 20.4946 22.2791 20.4953C22.2791 20.4953 22.169 20.475 21.9488 20.4344C21.4644 20.3539 20.9803 20.2953 20.4966 20.2587C20.0568 20.2214 19.5947 20.1625 19.1103 20.0819ZM17.257 19.5169C16.7726 19.4364 16.3541 19.3548 16.0015 19.2723C15.6928 19.1891 15.6043 19.1465 15.736 19.1446C16.0008 19.2284 16.3312 19.2893 16.7271 19.3273C17.1229 19.3652 17.5411 19.4248 17.9816 19.506C18.3781 19.5878 18.7521 19.6261 19.1034 19.6208C19.4554 19.6594 19.7418 19.721 19.9627 19.8055C19.6553 19.8102 19.2374 19.7725 18.7091 19.6927C18.2254 19.656 17.7414 19.5975 17.257 19.5169ZM9.31373 17.0672C9.35831 17.1105 9.31472 17.1331 9.18298 17.1351C9.05124 17.1371 9.00766 17.1597 9.05223 17.203C8.61177 17.1218 8.325 17.0382 8.19194 16.9524C8.10278 16.8659 7.94776 16.7804 7.72686 16.6959L9.31373 17.0672ZM10.707 17.7051C10.8839 17.7903 11.017 17.8761 11.1062 17.9626C11.1947 18.0052 11.2609 18.0261 11.3048 18.0255C11.3493 18.0687 11.4382 18.1333 11.5712 18.2191C11.6151 18.2185 11.7695 18.2601 12.0343 18.3439C12.1221 18.3426 12.3863 18.3825 12.8268 18.4637C12.6065 18.4231 12.4964 18.4028 12.4964 18.4028C12.4971 18.4467 12.5194 18.4684 12.5633 18.4677C12.6518 18.5103 12.696 18.5316 12.696 18.5316C12.6967 18.5755 12.5872 18.5991 12.3676 18.6024C12.1028 18.5186 11.8161 18.435 11.5074 18.3519C11.2432 18.3119 10.9348 18.2507 10.5822 18.1682C10.2735 18.085 9.9644 17.9798 9.65501 17.8527C9.34629 17.7695 9.03757 17.6863 8.72884 17.6032C8.11074 17.3929 7.58079 17.2032 7.139 17.0342C6.69654 16.8212 6.40845 16.6499 6.27472 16.5201C6.49562 16.6046 6.69456 16.6895 6.87154 16.7747C7.09243 16.8592 7.29137 16.944 7.46835 17.0292L8.46238 17.4095C9.03657 17.6205 9.89654 17.8491 11.0423 18.0953C11.0855 18.0508 10.8643 17.9443 10.3786 17.7759C10.1577 17.6914 9.9591 17.6285 9.78278 17.5873C9.60646 17.546 9.51797 17.5034 9.51731 17.4595C10.178 17.5813 10.5746 17.6632 10.707 17.7051ZM12.0883 17.5525C11.7356 17.4699 11.5367 17.3851 11.4914 17.2979C11.4462 17.2108 11.5779 17.2088 11.8867 17.292C11.7995 17.3372 11.8221 17.3808 11.9545 17.4227C12.1308 17.464 12.1754 17.5072 12.0883 17.5525ZM14.789 17.5117C15.5814 17.6315 16.2428 17.7972 16.773 18.0088C16.6413 18.0108 16.5092 17.9909 16.3768 17.9489C16.2451 17.9509 16.2897 17.9942 16.5106 18.0787C16.0262 17.9982 15.6739 17.9376 15.4536 17.897C15.2341 17.9003 15.0804 17.9026 14.9925 17.9039C14.8601 17.862 14.7281 17.8421 14.5963 17.844C14.4646 17.846 14.2224 17.8058 13.8698 17.7232C14.3102 17.8044 14.5082 17.8234 14.4636 17.7802C14.419 17.7369 14.2866 17.695 14.0664 17.6544C13.8455 17.5699 13.5587 17.4863 13.2061 17.4038C12.8541 17.3652 12.5683 17.3476 12.3488 17.3509C12.3474 17.263 12.3245 17.1975 12.2799 17.1543C12.236 17.1549 12.0371 17.0701 11.6831 16.8997C12.2999 17.0222 12.8505 17.1237 13.3348 17.2042C13.8638 17.328 14.3485 17.4305 14.789 17.5117ZM25.1635 19.5294C25.5155 19.568 25.8452 19.585 26.1526 19.5803C26.5045 19.6189 26.7467 19.6592 26.8791 19.7011C26.0434 19.6259 25.4716 19.5686 25.1635 19.5294ZM27.1426 19.6972C27.4953 19.7797 28.0009 19.816 28.6596 19.806C29.3629 19.8394 29.8031 19.8986 29.98 19.9838C29.3207 19.9498 28.7711 19.9142 28.3313 19.8769C27.8915 19.8396 27.4953 19.7797 27.1426 19.6972ZM26.0956 20.1742C27.107 20.2467 28.1403 20.319 29.1955 20.3909C30.2947 20.4622 31.3719 20.5338 32.4272 20.6057C31.153 20.581 29.9883 20.5327 28.9331 20.4608C27.8778 20.3889 26.8445 20.3166 25.8331 20.244C24.9535 20.1694 24.1175 20.0722 23.3251 19.9524C22.5333 19.8765 21.7635 19.8003 21.0156 19.7237C21.0156 19.7237 21.0379 19.7454 21.0825 19.7886C21.0379 19.7454 20.9717 19.7244 20.8839 19.7257C20.7961 19.7271 20.7079 19.7064 20.6194 19.6638C20.5755 19.6645 20.5096 19.6655 20.4218 19.6668C20.0705 19.6721 19.5868 19.6355 18.9706 19.5569C18.3984 19.4777 17.8043 19.3989 17.1882 19.3203C16.8362 19.2817 16.5062 19.2427 16.1981 19.2035C15.89 19.1642 15.5817 19.103 15.2729 19.0198C14.9649 18.9805 14.6788 18.9409 14.4146 18.901C14.1505 18.861 13.9083 18.8207 13.688 18.7801C14.2603 18.8594 14.8541 18.9163 15.4695 18.9509C16.085 18.9856 16.7011 19.0641 17.3179 19.1866C17.5381 19.2272 17.7138 19.2245 17.8449 19.1786C18.0205 19.176 18.2185 19.1949 18.4387 19.2355C18.9231 19.3161 19.3636 19.3973 19.7601 19.4791C20.1567 19.561 20.5312 19.6432 20.8839 19.7257L21.0156 19.7237C20.9271 19.6812 20.9268 19.6592 21.0146 19.6579C21.1025 19.6565 21.2565 19.6762 21.4767 19.7168C21.697 19.7574 21.9169 19.776 22.1364 19.7727C22.4006 19.8127 22.5762 19.81 22.6634 19.7648C22.1797 19.7281 21.7176 19.6692 21.2771 19.588C20.8373 19.5507 20.4857 19.5341 20.2222 19.5381C20.3087 19.4489 20.6154 19.4004 21.1424 19.3924C21.7159 19.5594 22.4209 19.7025 23.2572 19.8217C24.1375 19.9402 25.0836 20.0577 26.0956 20.1742ZM32.9064 17.4359C33.1706 17.4759 33.5 17.4709 33.8945 17.421C34.3337 17.4144 34.51 17.4557 34.4235 17.5448C34.1161 17.5495 33.7867 17.5544 33.4354 17.5597C33.128 17.5644 32.9517 17.5231 32.9064 17.4359ZM6.87677 12.7556C7.05375 12.8407 7.09833 12.884 7.0105 12.8853C6.83484 12.888 6.65852 12.8467 6.48154 12.7615C6.3039 12.6324 6.28128 12.5888 6.41368 12.6308C6.54609 12.6727 6.70045 12.7143 6.87677 12.7556ZM23.6338 14.2157C23.8115 14.3448 23.7466 14.4117 23.4392 14.4163C23.0866 14.3338 22.7123 14.2735 22.3164 14.2356C21.9212 14.2415 21.657 14.2016 21.524 14.1158C21.8759 14.1544 22.2276 14.171 22.5789 14.1657C22.9302 14.1604 23.2819 14.1771 23.6338 14.2157ZM20.6667 14.0628C21.0619 14.0569 21.4797 14.0945 21.9202 14.1757C22.4052 14.3001 22.6261 14.3846 22.5829 14.4292C22.362 14.3447 22.0316 14.2838 21.5918 14.2465C21.1959 14.2086 20.8875 14.1473 20.6667 14.0628ZM22.9841 14.8185C22.4119 14.7393 22.0156 14.6794 21.7954 14.6388C21.6197 14.6414 21.5758 14.6421 21.6637 14.6407C21.7515 14.6394 21.9052 14.6371 22.1248 14.6338C22.3889 14.6737 22.6753 14.7353 22.9841 14.8185ZM13.6045 13.247C14.3092 13.3681 14.9692 13.446 15.5847 13.4807C16.2008 13.5592 16.6851 13.6397 17.0378 13.7223C16.8615 13.681 16.5973 13.6411 16.2453 13.6025C15.894 13.6078 15.5204 13.5914 15.1245 13.5535C14.7719 13.471 14.4416 13.4101 14.1335 13.3708C13.87 13.3748 13.6937 13.3335 13.6045 13.247ZM14.6635 13.5604C15.1039 13.6416 15.5437 13.6789 15.9829 13.6723C16.4227 13.7096 16.8408 13.7692 17.2374 13.851C17.0617 13.8537 16.8418 13.835 16.5777 13.7951C16.3581 13.7984 16.1163 13.7801 15.8521 13.7402C15.6319 13.6996 15.4116 13.659 15.1914 13.6184C14.9718 13.6217 14.7959 13.6024 14.6635 13.5604ZM18.6915 14.1585C18.2956 14.1206 18.1852 14.0783 18.3602 14.0317C18.5358 14.0291 18.7334 14.0261 18.953 14.0228C19.0854 14.0647 19.2175 14.0847 19.3492 14.0827C19.4816 14.1246 19.7019 14.1652 20.0099 14.2045C19.9214 14.1619 19.7228 14.099 19.4141 14.0158C19.106 13.9766 19.0838 13.9549 19.3472 13.951C19.5681 14.0355 19.8762 14.0747 20.2714 14.0688C20.6673 14.1067 20.9318 14.1686 21.0649 14.2545C20.7575 14.2591 20.6038 14.2614 20.6038 14.2614C20.9564 14.344 21.3526 14.4039 21.7924 14.4411C22.2761 14.4778 22.6065 14.5387 22.7835 14.6238C21.8606 14.5939 20.9591 14.5196 20.0788 14.4011C19.1992 14.3265 18.3854 14.251 17.6376 14.1744C18.0335 14.2124 18.298 14.2743 18.431 14.3601C18.123 14.3208 17.7929 14.2819 17.441 14.2433C17.1336 14.2479 16.9792 14.2063 16.9779 14.1185C17.1535 14.1158 17.3951 14.1122 17.7025 14.1076C18.0544 14.1462 18.3841 14.1632 18.6915 14.1585ZM21.3853 13.6567C21.7372 13.6953 22.1108 13.7116 22.5061 13.7056C22.9452 13.699 23.407 13.736 23.8913 13.8165L23.8933 13.9482C23.0137 13.8737 22.1564 13.8207 21.3214 13.7894C20.5303 13.7574 19.826 13.6582 19.2085 13.4919C19.5612 13.5744 19.9132 13.613 20.2645 13.6077C20.6158 13.6024 20.9894 13.6187 21.3853 13.6567ZM21.0251 11.6196C21.6406 11.6543 22.0581 11.6699 22.2776 11.6666C22.4979 11.7072 22.586 11.7278 22.5421 11.7285C22.4989 11.7731 21.9932 11.7368 21.0251 11.6196ZM19.7136 12.0347C20.7204 11.7999 22.3016 11.798 24.4573 12.029C24.2817 12.0317 24.0398 12.0134 23.7318 11.9741C23.4683 11.9781 23.2268 11.9817 23.0072 11.985C22.743 11.9451 22.5671 11.9258 22.4792 11.9271C22.3914 11.9284 22.4799 11.971 22.7447 12.0549C22.1292 12.0202 21.6019 12.0062 21.1628 12.0129C20.7243 12.0634 20.2413 12.0707 19.7136 12.0347ZM23.6112 8.35219C23.8321 8.43671 24.0743 8.47698 24.3378 8.473C24.6019 8.51294 24.9103 8.57417 25.263 8.6567C24.6468 8.57815 24.075 8.52089 23.5473 8.48493C23.0636 8.44831 22.4478 8.39171 21.7 8.31515C21.6115 8.27256 21.6112 8.25061 21.699 8.24928C21.7868 8.24796 21.8966 8.2463 22.0283 8.24431C22.1601 8.24232 22.2699 8.24067 22.3577 8.23934C22.4901 8.28127 22.556 8.28027 22.5553 8.23636C22.204 8.24166 21.9841 8.22302 21.8956 8.18043C21.8071 8.13784 21.7622 8.07263 21.7609 7.9848C22.2013 8.066 22.5536 8.12657 22.8178 8.16651C23.1258 8.20579 23.3903 8.26768 23.6112 8.35219ZM37.1396 9.79518C36.8768 9.84307 36.6133 9.84705 36.3492 9.80711C36.0857 9.81109 35.7783 9.81573 35.427 9.82103C35.427 9.82103 35.5148 9.8197 35.6905 9.81705C35.9107 9.85765 36.1306 9.87629 36.3502 9.87298C36.5697 9.86967 36.7454 9.86702 36.8771 9.86503C37.0528 9.86238 37.1403 9.8391 37.1396 9.79518ZM55.9685 13.2006C56.715 13.1894 57.6372 13.1755 58.7351 13.1589C59.8775 13.1856 60.7564 13.2162 61.3719 13.2509C60.3619 13.2661 59.3958 13.2807 58.4736 13.2946C57.5514 13.3085 56.7163 13.2772 55.9685 13.2006ZM58.3458 13.5601C59.6186 13.4969 60.1676 13.4887 59.9926 13.5352C59.8182 13.6257 59.2693 13.634 58.3458 13.5601ZM61.1783 13.5173C61.5741 13.5553 61.9694 13.5493 62.3639 13.4994C62.7585 13.4496 63.0882 13.4665 63.353 13.5504C62.8693 13.5138 62.4521 13.5201 62.1014 13.5693C61.7508 13.6185 61.4431 13.6012 61.1783 13.5173ZM71.8553 13.7515C72.6025 13.7842 73.3271 13.7732 74.029 13.7187C74.7756 13.7074 75.4346 13.7195 76.0062 13.7548C75.7427 13.7587 75.3475 13.7647 74.8205 13.7727C74.2935 13.7806 73.7666 13.7886 73.2396 13.7965C72.7126 13.8045 72.2951 13.7888 71.987 13.7495C71.6796 13.7542 71.6357 13.7548 71.8553 13.7515ZM69.0308 14.3212C69.8219 14.3532 70.6786 14.3623 71.6008 14.3483C72.5675 14.3777 73.512 14.3854 74.4342 14.3715C75.4003 14.3569 76.3228 14.3649 77.2018 14.3956C78.1246 14.4256 78.96 14.4789 79.7079 14.5554C78.5654 14.5287 77.4233 14.524 76.2816 14.5412C75.1398 14.5585 73.9538 14.5544 72.7236 14.529C72.3722 14.5343 72.0206 14.5177 71.6686 14.4791C71.3173 14.4844 70.966 14.4897 70.6147 14.495C70.2634 14.5003 69.9117 14.4836 69.5598 14.445C69.2524 14.4497 68.9227 14.4327 68.5707 14.3941C67.8674 14.3608 67.208 14.3268 66.5926 14.2921C65.9778 14.3014 65.4069 14.31 64.8799 14.318C64.836 14.3187 64.858 14.3183 64.9458 14.317C65.0782 14.3589 64.9907 14.3822 64.6833 14.3868C63.8044 14.3562 62.6616 14.3075 61.2551 14.2409C59.8931 14.2176 58.5527 14.1719 57.234 14.1039C57.892 14.0501 58.6605 14.0385 59.5394 14.0692C60.4623 14.0992 61.2308 14.0876 61.8449 14.0344C60.7903 14.0064 59.8019 13.9993 58.8797 14.0132C58.0015 14.0265 57.1228 14.0178 56.2439 13.9871L55.6511 13.9961L55.5193 13.998L55.4534 13.999L55.3876 14L55.19 14.003L54.8606 14.008L53.6091 14.0269C53.1699 14.0335 52.7308 14.0401 52.2916 14.0468C51.8964 14.0527 51.4569 14.0374 50.9732 14.0008C51.3245 13.9955 51.6319 13.9908 51.8954 13.9869C52.2028 13.9822 52.3998 13.9353 52.4863 13.8462C51.4343 13.9938 50.1834 14.0566 48.7336 14.0346C47.3277 14.0119 46.1191 13.9642 45.1077 13.8916C46.161 13.8318 47.2802 13.771 48.4652 13.7092C49.6502 13.6474 50.8791 13.5849 52.152 13.5218C52.4593 13.5171 52.7664 13.4905 53.0731 13.442C53.3805 13.4374 53.6879 13.4327 53.9953 13.4281L54.9834 13.4132L55.5094 13.3393L56.1032 13.3963C56.718 13.387 57.3328 13.3777 57.9476 13.3684C58.607 13.4024 59.2444 13.4367 59.8598 13.4713C59.5085 13.4766 59.0691 13.4613 58.5414 13.4254C58.0584 13.4326 57.5753 13.4399 57.0923 13.4472C56.8727 13.4505 56.6528 13.4319 56.4326 13.3913C56.213 13.3946 55.9938 13.4199 55.7749 13.4671L55.709 13.4681L55.6431 13.4691L55.5114 13.4711L55.4455 13.4721L55.3138 13.4741L55.0503 13.478C54.9624 13.4794 54.8966 13.4804 54.8527 13.481C54.8094 13.5256 54.7658 13.5482 54.7219 13.5489L55.183 13.5419L55.4465 13.5379L55.5124 13.537L55.6441 13.535L55.71 13.534L55.8417 13.532L56.6322 13.5201C56.8957 13.5161 57.1591 13.5121 57.4226 13.5081C57.6868 13.5481 57.9286 13.5664 58.1482 13.5631L56.4355 13.5889L55.711 13.5998L55.6451 13.6008L55.5134 13.6028L55.4475 13.6038C55.4481 13.6477 55.4046 13.6704 55.3167 13.6717L55.1191 13.6747L55.3826 13.6707L55.4485 13.6697L55.5143 13.6687L55.6461 13.6667L55.7778 13.6647C55.9535 13.6621 56.1075 13.6817 56.2399 13.7236L57.1621 13.7097C57.4695 13.7051 57.755 13.7008 58.0184 13.6968C58.3258 13.6922 58.6116 13.7098 58.8758 13.7497L61.6423 13.708C61.3788 13.712 61.0715 13.7166 60.7201 13.7219C60.3688 13.7272 60.3026 13.7062 60.5215 13.659C61.0485 13.6511 61.6194 13.6424 62.2342 13.6332C62.8935 13.6671 63.5306 13.6795 64.1454 13.6702C64.7602 13.6609 65.3311 13.6523 65.8581 13.6444C66.4296 13.6797 66.9133 13.7163 67.3092 13.7542C67.2221 13.7995 67.0244 13.8025 66.7164 13.7632C66.4083 13.7239 66.2327 13.7266 66.1894 13.7711C67.0244 13.8025 67.6835 13.8145 68.1665 13.8072C68.6935 13.7992 69.265 13.8345 69.8812 13.9131C69.6177 13.9171 69.3319 13.8994 69.0239 13.8601C68.7604 13.8641 68.6073 13.9103 68.5647 13.9988C68.916 13.9935 69.0698 13.9912 69.0258 13.9919C69.0265 14.0358 69.1809 14.0774 69.4889 14.1167C70.8509 14.14 72.1464 14.1205 73.3753 14.058C74.6488 14.0388 75.901 14.0638 77.1319 14.1331C76.2097 14.147 75.2217 14.1619 74.1677 14.1778C73.1138 14.1937 72.0595 14.1877 71.0049 14.1597L69.424 14.1835C69.1599 14.1436 68.8961 14.1256 68.6326 14.1296C68.413 14.1329 68.1715 14.1365 67.908 14.1405C67.425 14.1478 66.9416 14.1331 66.4579 14.0965C65.9748 14.1038 65.5137 14.1108 65.0746 14.1174C65.3826 14.1567 65.7562 14.173 66.1954 14.1664C66.6784 14.1591 67.1615 14.1518 67.6445 14.1445C68.1283 14.1811 68.6116 14.1958 69.0947 14.1885C69.5777 14.1812 69.9953 14.1969 70.3472 14.2355C70.0398 14.2401 69.7764 14.2441 69.5568 14.2474C69.3818 14.294 69.2065 14.3186 69.0308 14.3212ZM111.312 13.1561L112.498 13.1382L114.869 13.1024C115.703 13.0898 116.472 13.0782 117.174 13.0676C117.922 13.1002 118.603 13.1339 119.218 13.1685C118.384 13.1811 117.593 13.1711 116.846 13.1384C116.144 13.149 115.419 13.16 114.672 13.1712L112.499 13.204C112.147 13.1654 111.773 13.1491 111.378 13.1551C111.027 13.1604 110.653 13.166 110.258 13.172L111.312 13.1561ZM104.844 12.3972C108.14 12.5231 111.392 12.6058 114.599 12.6453C117.806 12.7286 121.014 12.812 124.222 12.8954C120.927 12.8572 117.654 12.7968 114.402 12.7141C111.195 12.6747 107.943 12.592 104.647 12.466C103.856 12.434 103.043 12.4024 102.208 12.3711C101.417 12.383 100.627 12.373 99.8355 12.341C99.4396 12.303 99.0441 12.287 98.6489 12.293C98.2536 12.299 97.8361 12.2833 97.3963 12.246C97.0011 12.252 96.6055 12.236 96.2096 12.198C95.8144 12.204 95.4189 12.188 95.023 12.1501C93.3968 12.0868 91.7927 12.0231 90.2104 11.9591C88.6289 11.9391 87.047 11.8971 85.4647 11.8331C87.047 11.8971 88.6508 11.9388 90.2763 11.9581C91.9024 12.0215 93.5286 12.0848 95.1547 12.1481C95.5499 12.1421 95.9452 12.1361 96.3404 12.1302C96.7363 12.1681 97.1541 12.2057 97.5939 12.243C97.9892 12.2371 98.3844 12.2311 98.7796 12.2251C99.1755 12.2631 99.593 12.2787 100.032 12.2721C100.823 12.3041 101.614 12.3141 102.404 12.3022C103.24 12.3335 104.053 12.3652 104.844 12.3972ZM153.656 24.9036C154.315 24.8936 154.974 24.8837 155.632 24.8738C156.292 24.9077 156.951 24.9198 157.609 24.9098L154.843 24.9516L153.46 24.9724L152.076 24.9933L146.543 25.0768C144.698 25.0607 142.875 25.0663 141.075 25.0935C139.318 25.12 137.539 25.1249 135.738 25.1081C133.937 25.0914 132.158 25.0743 130.401 25.0569C128.644 25.0395 126.886 25.0221 125.129 25.0047C123.371 24.9434 121.614 24.904 119.857 24.8866C118.144 24.9124 116.431 24.8944 114.717 24.8324C113.003 24.7704 111.289 24.7084 109.575 24.6464C107.905 24.6277 106.236 24.587 104.566 24.5244L99.6222 24.4013C99.1824 24.364 98.7646 24.3264 98.3687 24.2885C97.9735 24.2944 97.5563 24.3007 97.1171 24.3073C96.7212 24.2694 96.3034 24.2318 95.8636 24.1945C95.4684 24.2005 95.0732 24.2064 94.6779 24.2124C93.0518 24.1491 91.4256 24.0858 89.7995 24.0225C88.2173 23.9585 86.6131 23.8949 84.987 23.8315L82.6126 23.6697C82.2174 23.6757 81.8218 23.6597 81.4259 23.6217C81.0746 23.627 80.701 23.6107 80.3051 23.5728C79.514 23.5408 78.7229 23.5088 77.9318 23.4768C77.1407 23.4448 76.3715 23.4125 75.6243 23.3799C75.3163 23.3406 75.1177 23.2777 75.0285 23.1912C74.9839 23.148 74.7421 23.1296 74.3029 23.1363C74.3029 23.1363 74.3688 23.1353 74.5006 23.1333C74.633 23.1752 74.765 23.1952 74.8968 23.1932C75.0292 23.2351 75.0954 23.2561 75.0954 23.2561C75.14 23.2993 75.0305 23.3229 74.767 23.3269C74.0192 23.2504 73.2497 23.1961 72.4586 23.1641C71.6674 23.1321 70.8763 23.1001 70.0852 23.0681C69.6893 23.0302 69.2934 22.9922 68.8975 22.9543C68.5023 22.9603 68.1287 22.9439 67.7767 22.9053C67.4248 22.8667 67.0731 22.8501 66.7218 22.8554C66.4144 22.86 66.1067 22.8427 65.7986 22.8034C66.4121 22.7063 67.2465 22.6937 68.3017 22.7656C69.357 22.8376 70.346 22.8885 71.2689 22.9185C71.4891 22.9591 71.8188 22.9761 72.258 22.9695C72.7417 23.0061 73.2251 23.0208 73.7081 23.0135C74.2357 23.0494 74.6972 23.0644 75.0924 23.0585C75.5322 23.0958 75.8403 23.135 76.0166 23.1763C76.0166 23.1763 75.9723 23.155 75.8838 23.1124C75.8399 23.1131 75.7741 23.1141 75.6862 23.1154C75.6423 23.1161 75.6423 23.1161 75.6862 23.1154C75.7301 23.1147 75.8619 23.1127 76.0815 23.1094C77.311 23.0909 78.5852 23.1156 79.904 23.1835C81.2227 23.2515 82.4975 23.3201 83.7284 23.3893C83.2893 23.396 82.784 23.3816 82.2124 23.3463C81.6415 23.3549 81.0707 23.3636 80.4998 23.3722C79.9728 23.3801 79.4458 23.3881 78.9189 23.396C78.3919 23.404 77.9528 23.4106 77.6015 23.4159C78.2169 23.4506 78.8101 23.4636 79.381 23.4549C79.9964 23.4896 80.6115 23.5023 81.2263 23.493C81.5331 23.4444 81.8182 23.4182 82.0817 23.4142C82.3891 23.4096 82.6965 23.4049 83.0039 23.4003L84.7824 23.3734C86.0565 23.3981 87.4628 23.4428 89.0011 23.5074C90.5401 23.616 92.0568 23.7029 93.5512 23.7682C94.2105 23.8022 94.8696 23.8142 95.5283 23.8042C96.2316 23.8375 96.9129 23.8712 97.5723 23.9052C98.2316 23.9391 98.8907 23.9512 99.5494 23.9412C100.209 23.9752 100.89 24.0088 101.593 24.0421C102.911 24.0662 104.23 24.0902 105.548 24.1142C106.91 24.1376 108.272 24.1829 109.635 24.2502C110.294 24.2842 110.953 24.2962 111.612 24.2863C112.315 24.3196 112.996 24.3313 113.655 24.3213C114.314 24.3553 114.973 24.3673 115.632 24.3574C116.335 24.3907 117.016 24.4243 117.676 24.4583C119.038 24.4817 120.378 24.5054 121.696 24.5294C123.058 24.5528 124.42 24.5761 125.782 24.5995C127.1 24.6235 128.418 24.6476 129.736 24.6716C131.098 24.695 132.46 24.7183 133.822 24.7417C134.481 24.7318 135.14 24.7218 135.798 24.7119C136.458 24.7459 137.139 24.7795 137.842 24.8128L139.818 24.783C140.17 24.8216 140.5 24.8386 140.807 24.834C141.115 24.8293 141.444 24.8243 141.796 24.819C143.157 24.8424 144.497 24.8442 145.815 24.8243C147.133 24.8483 148.451 24.8723 149.769 24.8964C150.428 24.8864 151.086 24.8765 151.745 24.8665C152.404 24.9005 153.041 24.9129 153.656 24.9036ZM160.846 12.3427C160.407 12.3493 159.902 12.3569 159.331 12.3655C158.805 12.4174 158.431 12.423 158.211 12.3824C158.606 12.3765 159.089 12.3472 159.659 12.2947C160.23 12.2861 160.626 12.3021 160.846 12.3427ZM210.044 11.0731C210.527 11.0658 211.075 11.0356 211.689 10.9824C212.348 10.9724 212.875 10.9645 213.27 10.9585C212.656 11.0117 212.042 11.043 211.427 11.0522C210.857 11.1048 210.395 11.1117 210.044 11.0731Z" fill="blue"/>
</svg>
